mtllib crate.mtl
o crate.obj
v -0.462235 0.480392 0.326102
v -0.462234 0.331064 0.475158
v -0.462234 -0.472409 -0.326851
v -0.462235 -0.323081 -0.475908
v -0.319713 0.480392 0.326102
v -0.319714 0.331064 0.475158
v -0.319714 -0.472409 -0.326851
v -0.319713 -0.323081 -0.475908
v 0.319802 0.480392 0.326102
v 0.319803 0.331064 0.475158
v 0.319803 -0.472409 -0.326851
v 0.319802 -0.323081 -0.475908
v 0.462324 0.480392 0.326102
v 0.462323 0.331064 0.475158
v 0.462323 -0.472409 -0.326851
v 0.462324 -0.323081 -0.475908
v -0.325899 0.480392 -0.463411
v -0.474711 0.331064 -0.463411
v 0.325987 -0.472409 -0.463411
v 0.474800 -0.323081 -0.463411
v -0.325899 0.480392 -0.320658
v -0.474711 0.331064 -0.320657
v 0.325987 -0.472409 -0.320658
v 0.474800 -0.323081 -0.320657
v -0.325899 0.480392 0.319909
v -0.474711 0.331064 0.319908
v 0.325987 -0.472409 0.319909
v 0.474800 -0.323081 0.319908
v -0.325899 0.480392 0.462663
v -0.474711 0.331064 0.462663
v 0.325987 -0.472409 0.462663
v 0.474800 -0.323081 0.462663
v -0.325899 -0.459889 -0.475908
v -0.474711 -0.459889 -0.326851
v 0.325987 -0.459889 0.475160
v 0.474800 -0.459889 0.326102
v -0.325899 -0.316876 -0.475908
v -0.474711 -0.316876 -0.326851
v 0.325987 -0.316876 0.475160
v 0.474800 -0.316876 0.326102
v -0.325899 0.324858 -0.475908
v -0.474711 0.324858 -0.326851
v 0.325987 0.324858 0.475160
v 0.474800 0.324858 0.326102
v -0.325899 0.467872 -0.475908
v -0.474711 0.467873 -0.326851
v 0.325987 0.467873 0.475160
v 0.474800 0.467873 0.326102
v 0.498250 -0.500000 0.498290
v -0.498240 -0.500000 0.498288
v 0.500000 0.499956 0.500000
v -0.500000 0.499956 0.499997
v 0.496632 -0.500000 -0.498031
v -0.496453 -0.500000 -0.498189
v 0.498380 0.499958 -0.499842
v -0.498208 0.499958 -0.500000
v -0.308721 0.309861 0.499692
v -0.308721 -0.309807 0.498618
v 0.308809 -0.309807 0.498618
v 0.308809 0.309861 0.499692
v -0.308722 -0.309806 -0.498488
v -0.308722 0.309863 -0.499622
v 0.308808 0.309863 -0.499524
v 0.308807 -0.309806 -0.498389
v -0.497096 -0.309806 -0.309170
v -0.498197 0.309863 -0.309172
v -0.498217 -0.309808 0.309369
v -0.499317 0.309861 0.309367
v 0.498336 0.309860 -0.309172
v 0.497241 -0.309803 -0.309170
v 0.499351 0.309864 0.309369
v 0.498256 -0.309810 0.309371
v 0.308809 -0.500000 -0.309193
v -0.308721 -0.500000 -0.309193
v 0.308809 -0.500000 0.309350
v -0.308721 -0.500000 0.309350
v -0.308717 0.500000 -0.309189
v 0.308806 0.500000 -0.309189
v -0.308723 0.500000 0.309353
v 0.308812 0.500000 0.309353
v -0.293289 0.294359 0.429880
v -0.293289 -0.294343 0.429880
v 0.293378 -0.294343 0.429880
v 0.293378 0.294359 0.429880
v -0.293289 -0.294343 -0.429720
v -0.293289 0.294359 -0.429720
v 0.293378 0.294359 -0.429720
v 0.293378 -0.294343 -0.429720
v 0.293378 -0.430575 -0.293736
v -0.293289 -0.430575 -0.293736
v 0.293378 -0.430575 0.293894
v -0.293289 -0.430575 0.293894
v -0.429050 -0.294343 -0.293736
v -0.429050 0.294359 -0.293736
v -0.429050 -0.294343 0.293894
v -0.429050 0.294359 0.293894
v -0.293286 0.430583 -0.293746
v 0.293374 0.430583 -0.293746
v -0.293294 0.430599 0.293884
v 0.293382 0.430599 0.293884
v 0.429130 0.294355 -0.293746
v 0.429130 -0.294338 -0.293746
v 0.429147 0.294363 0.293884
v 0.429147 -0.294347 0.293884
vn -1.000000 -0.000003 0.000003
vn -1.000000 -0.000003 0.000003
vn -1.000000 -0.000003 0.000003
vn -1.000000 -0.000003 0.000003
vn 1.000000 -0.000003 0.000003
vn 1.000000 -0.000003 0.000003
vn 1.000000 -0.000003 0.000003
vn 1.000000 -0.000003 0.000003
vn 0.000000 0.706461 0.707752
vn 0.000000 0.706461 0.707752
vn 0.000000 0.706461 0.707752
vn 0.000000 0.706461 0.707752
vn 0.000000 -0.706462 0.707751
vn 0.000000 -0.706462 0.707751
vn 0.000000 -0.706462 0.707751
vn 0.000000 -0.706462 0.707751
vn -0.000000 -0.706465 -0.707748
vn -0.000000 -0.706465 -0.707748
vn -0.000000 -0.706465 -0.707748
vn -0.000000 -0.706465 -0.707748
vn 0.000000 0.706462 -0.707751
vn 0.000000 0.706462 -0.707751
vn 0.000000 0.706462 -0.707751
vn 0.000000 0.706462 -0.707751
vn -1.000000 -0.000003 0.000003
vn -1.000000 -0.000003 0.000003
vn -1.000000 -0.000003 0.000003
vn -1.000000 -0.000003 0.000003
vn 1.000000 -0.000003 0.000003
vn 1.000000 -0.000003 0.000003
vn 1.000000 -0.000003 0.000003
vn 1.000000 -0.000003 0.000003
vn 0.000000 0.706461 0.707752
vn 0.000000 0.706461 0.707752
vn 0.000000 0.706461 0.707752
vn 0.000000 0.706461 0.707752
vn 0.000000 -0.706462 0.707751
vn 0.000000 -0.706462 0.707751
vn 0.000000 -0.706462 0.707751
vn 0.000000 -0.706462 0.707751
vn -0.000000 -0.706465 -0.707748
vn -0.000000 -0.706465 -0.707748
vn -0.000000 -0.706465 -0.707748
vn -0.000000 -0.706465 -0.707748
vn 0.000000 0.706462 -0.707751
vn 0.000000 0.706462 -0.707751
vn 0.000000 0.706462 -0.707751
vn 0.000000 0.706462 -0.707751
vn -0.000002 -0.000003 -1.000000
vn -0.000002 -0.000003 -1.000000
vn -0.000002 -0.000003 -1.000000
vn -0.000002 -0.000003 -1.000000
vn 0.000004 0.000002 1.000000
vn 0.000004 0.000002 1.000000
vn 0.000004 0.000002 1.000000
vn 0.000004 0.000002 1.000000
vn -0.708330 0.705881 0.000000
vn -0.708330 0.705881 0.000000
vn -0.708330 0.705881 0.000000
vn -0.708330 0.705881 0.000000
vn -0.708329 -0.705883 -0.000000
vn -0.708329 -0.705883 -0.000000
vn -0.708329 -0.705883 -0.000000
vn -0.708329 -0.705883 -0.000000
vn 0.708329 -0.705883 0.000000
vn 0.708329 -0.705883 0.000000
vn 0.708329 -0.705883 0.000000
vn 0.708329 -0.705883 0.000000
vn 0.708329 0.705882 0.000000
vn 0.708329 0.705882 0.000000
vn 0.708329 0.705882 0.000000
vn 0.708329 0.705882 0.000000
vn -0.000002 -0.000003 -1.000000
vn -0.000002 -0.000003 -1.000000
vn -0.000002 -0.000003 -1.000000
vn -0.000002 -0.000003 -1.000000
vn 0.000003 0.000002 1.000000
vn 0.000003 0.000002 1.000000
vn 0.000003 0.000002 1.000000
vn 0.000003 0.000002 1.000000
vn -0.708330 0.705881 0.000000
vn -0.708330 0.705881 0.000000
vn -0.708330 0.705881 0.000000
vn -0.708330 0.705881 0.000000
vn -0.708329 -0.705883 -0.000000
vn -0.708329 -0.705883 -0.000000
vn -0.708329 -0.705883 -0.000000
vn -0.708329 -0.705883 -0.000000
vn 0.708329 -0.705883 0.000000
vn 0.708329 -0.705883 0.000000
vn 0.708329 -0.705883 0.000000
vn 0.708329 -0.705883 0.000000
vn 0.708329 0.705882 0.000000
vn 0.708329 0.705882 0.000000
vn 0.708329 0.705882 0.000000
vn 0.708329 0.705882 0.000000
vn 0.000000 -1.000000 -0.000000
vn 0.000000 -1.000000 -0.000000
vn 0.000000 -1.000000 -0.000000
vn 0.000000 -1.000000 -0.000000
vn -0.000000 1.000000 0.000000
vn -0.000000 1.000000 0.000000
vn -0.000000 1.000000 0.000000
vn -0.000000 1.000000 0.000000
vn -0.707688 -0.000000 -0.706525
vn -0.707688 -0.000000 -0.706525
vn -0.707688 -0.000000 -0.706525
vn -0.707688 -0.000000 -0.706525
vn -0.707685 0.000000 0.706528
vn -0.707685 0.000000 0.706528
vn -0.707685 0.000000 0.706528
vn -0.707685 0.000000 0.706528
vn 0.707690 0.000000 0.706523
vn 0.707690 0.000000 0.706523
vn 0.707690 0.000000 0.706523
vn 0.707690 0.000000 0.706523
vn 0.707685 0.000000 -0.706528
vn 0.707685 0.000000 -0.706528
vn 0.707685 0.000000 -0.706528
vn 0.707685 0.000000 -0.706528
vn 0.000000 -1.000000 -0.000000
vn 0.000000 -1.000000 -0.000000
vn 0.000000 -1.000000 -0.000000
vn 0.000000 -1.000000 -0.000000
vn 0.000002 1.000000 -0.000002
vn 0.000002 1.000000 -0.000002
vn 0.000002 1.000000 -0.000002
vn 0.000002 1.000000 -0.000002
vn -0.707688 -0.000000 -0.706525
vn -0.707688 -0.000000 -0.706525
vn -0.707688 -0.000000 -0.706525
vn -0.707688 -0.000000 -0.706525
vn -0.707685 0.000000 0.706528
vn -0.707685 0.000000 0.706528
vn -0.707685 0.000000 0.706528
vn -0.707685 0.000000 0.706528
vn 0.707690 0.000000 0.706523
vn 0.707690 0.000000 0.706523
vn 0.707690 0.000000 0.706523
vn 0.707690 0.000000 0.706523
vn 0.707685 0.000000 -0.706528
vn 0.707685 0.000000 -0.706528
vn 0.707685 0.000000 -0.706528
vn 0.707685 0.000000 -0.706528
vn 0.000000 0.000000 1.000000
vn 0.000000 0.000000 1.000000
vn 0.000000 0.000000 1.000000
vn 0.000000 0.000000 1.000000
vn 0.000000 0.000000 -1.000000
vn 0.000000 0.000000 -1.000000
vn 0.000000 0.000000 -1.000000
vn 0.000000 0.000000 -1.000000
vn 0.000000 -1.000000 0.000000
vn 0.000000 -1.000000 0.000000
vn 0.000000 -1.000000 0.000000
vn 0.000000 -1.000000 0.000000
vn -1.000000 0.000000 0.000000
vn -1.000000 0.000000 0.000000
vn -1.000000 0.000000 0.000000
vn -1.000000 0.000000 0.000000
vn 0.000000 1.000000 -0.000028
vn 0.000000 1.000000 -0.000028
vn 0.000000 1.000000 -0.000028
vn 0.000000 1.000000 -0.000028
vn 1.000000 0.000000 -0.000028
vn 1.000000 0.000000 -0.000028
vn 1.000000 0.000000 -0.000028
vn 1.000000 0.000000 -0.000028
vn -0.000026 -0.001709 0.999999
vn -0.000026 -0.001709 0.999999
vn -0.000026 -0.001709 0.999999
vn -0.000026 -0.001709 0.999999
vn -0.000002 -0.001728 0.999999
vn -0.000002 -0.001728 0.999999
vn -0.000002 -0.001728 0.999999
vn -0.000002 -0.001728 0.999999
vn 0.000089 -0.001710 0.999999
vn 0.000089 -0.001710 0.999999
vn 0.000089 -0.001710 0.999999
vn 0.000089 -0.001710 0.999999
vn -0.000003 -0.001610 0.999999
vn -0.000003 -0.001610 0.999999
vn -0.000003 -0.001610 0.999999
vn -0.000003 -0.001610 0.999999
vn 0.000178 -0.001811 -0.999998
vn 0.000178 -0.001811 -0.999998
vn 0.000178 -0.001811 -0.999998
vn 0.000178 -0.001811 -0.999998
vn 0.000159 -0.001831 -0.999998
vn 0.000159 -0.001831 -0.999998
vn 0.000159 -0.001831 -0.999998
vn 0.000159 -0.001831 -0.999998
vn 0.000072 -0.001811 -0.999998
vn 0.000072 -0.001811 -0.999998
vn 0.000072 -0.001811 -0.999998
vn 0.000072 -0.001811 -0.999998
vn 0.000159 -0.001727 -0.999999
vn 0.000159 -0.001727 -0.999999
vn 0.000159 -0.001727 -0.999999
vn 0.000159 -0.001727 -0.999999
vn -0.999997 -0.001758 -0.001634
vn -0.999997 -0.001758 -0.001634
vn -0.999997 -0.001758 -0.001634
vn -0.999997 -0.001758 -0.001634
vn -0.999997 -0.001658 -0.001794
vn -0.999997 -0.001658 -0.001794
vn -0.999997 -0.001658 -0.001794
vn -0.999997 -0.001658 -0.001794
vn -0.999997 -0.001757 -0.001833
vn -0.999997 -0.001757 -0.001833
vn -0.999997 -0.001757 -0.001833
vn -0.999997 -0.001757 -0.001833
vn -0.999997 -0.001858 -0.001792
vn -0.999997 -0.001858 -0.001792
vn -0.999997 -0.001858 -0.001792
vn -0.999997 -0.001858 -0.001792
vn 0.999997 -0.001750 -0.001517
vn 0.999997 -0.001750 -0.001517
vn 0.999997 -0.001750 -0.001517
vn 0.999997 -0.001750 -0.001517
vn 0.999997 -0.001786 -0.001621
vn 0.999997 -0.001786 -0.001621
vn 0.999997 -0.001786 -0.001621
vn 0.999997 -0.001786 -0.001621
vn 0.999997 -0.001747 -0.001727
vn 0.999997 -0.001747 -0.001727
vn 0.999997 -0.001747 -0.001727
vn 0.999997 -0.001747 -0.001727
vn 0.999997 -0.001587 -0.001624
vn 0.999997 -0.001587 -0.001624
vn 0.999997 -0.001587 -0.001624
vn 0.999997 -0.001587 -0.001624
vn -0.000000 -1.000000 0.000000
vn -0.000000 -1.000000 0.000000
vn -0.000000 -1.000000 0.000000
vn -0.000000 -1.000000 0.000000
vn 0.000000 -1.000000 0.000000
vn 0.000000 -1.000000 0.000000
vn 0.000000 -1.000000 0.000000
vn 0.000000 -1.000000 0.000000
vn 0.000000 -1.000000 0.000000
vn 0.000000 -1.000000 0.000000
vn 0.000000 -1.000000 0.000000
vn 0.000000 -1.000000 0.000000
vn 0.000000 -1.000000 0.000000
vn 0.000000 -1.000000 0.000000
vn 0.000000 -1.000000 0.000000
vn 0.000000 -1.000000 0.000000
vn 0.000000 1.000000 -0.000219
vn 0.000000 1.000000 -0.000219
vn 0.000000 1.000000 -0.000219
vn 0.000000 1.000000 -0.000219
vn -0.000226 1.000000 0.000001
vn -0.000226 1.000000 0.000001
vn -0.000226 1.000000 0.000001
vn -0.000226 1.000000 0.000001
vn -0.000000 1.000000 0.000228
vn -0.000000 1.000000 0.000228
vn -0.000000 1.000000 0.000228
vn -0.000000 1.000000 0.000228
vn 0.000222 1.000000 0.000001
vn 0.000222 1.000000 0.000001
vn 0.000222 1.000000 0.000001
vn 0.000222 1.000000 0.000001
vn 0.975733 -0.000379 0.218964
vn 0.975733 -0.000379 0.218964
vn 0.975733 -0.000379 0.218964
vn 0.975733 -0.000379 0.218964
vn 0.000000 0.975616 0.219486
vn 0.000000 0.975616 0.219486
vn 0.000000 0.975616 0.219486
vn 0.000000 0.975616 0.219486
vn -0.976412 -0.000374 0.215914
vn -0.976412 -0.000374 0.215914
vn -0.976412 -0.000374 0.215914
vn -0.976412 -0.000374 0.215914
vn 0.000000 -0.976223 0.216769
vn 0.000000 -0.976223 0.216769
vn 0.000000 -0.976223 0.216769
vn 0.000000 -0.976223 0.216769
vn 0.976468 -0.000396 -0.215663
vn 0.976468 -0.000396 -0.215663
vn 0.976468 -0.000396 -0.215663
vn 0.976468 -0.000396 -0.215663
vn 0.000035 -0.976214 -0.216809
vn 0.000035 -0.976214 -0.216809
vn 0.000035 -0.976214 -0.216809
vn 0.000035 -0.976214 -0.216809
vn -0.975695 -0.000400 -0.219133
vn -0.975695 -0.000400 -0.219133
vn -0.975695 -0.000400 -0.219133
vn -0.975695 -0.000400 -0.219133
vn 0.000035 0.975637 -0.219392
vn 0.000035 0.975637 -0.219392
vn 0.000035 0.975637 -0.219392
vn 0.000035 0.975637 -0.219392
vn 0.000000 -0.217320 0.976100
vn 0.000000 -0.217320 0.976100
vn 0.000000 -0.217320 0.976100
vn 0.000000 -0.217320 0.976100
vn -0.976176 -0.216980 -0.000000
vn -0.976176 -0.216980 -0.000000
vn -0.976176 -0.216980 -0.000000
vn -0.976176 -0.216980 -0.000000
vn 0.000000 -0.217309 -0.976103
vn 0.000000 -0.217309 -0.976103
vn 0.000000 -0.217309 -0.976103
vn 0.000000 -0.217309 -0.976103
vn 0.976176 -0.216980 0.000000
vn 0.976176 -0.216980 0.000000
vn 0.976176 -0.216980 0.000000
vn 0.976176 -0.216980 0.000000
vn -0.221118 -0.000389 0.975247
vn -0.221118 -0.000389 0.975247
vn -0.221118 -0.000389 0.975247
vn -0.221118 -0.000389 0.975247
vn -0.218286 0.975885 -0.000393
vn -0.218286 0.975885 -0.000393
vn -0.218286 0.975885 -0.000393
vn -0.218286 0.975885 -0.000393
vn -0.215139 -0.000385 -0.976583
vn -0.215139 -0.000385 -0.976583
vn -0.215139 -0.000385 -0.976583
vn -0.215139 -0.000385 -0.976583
vn -0.218694 -0.975793 -0.000399
vn -0.218694 -0.975793 -0.000399
vn -0.218694 -0.975793 -0.000399
vn -0.218694 -0.975793 -0.000399
vn -0.000000 0.217157 0.976137
vn -0.000000 0.217157 0.976137
vn -0.000000 0.217157 0.976137
vn -0.000000 0.217157 0.976137
vn 0.976165 0.217028 0.000010
vn 0.976165 0.217028 0.000010
vn 0.976165 0.217028 0.000010
vn 0.976165 0.217028 0.000010
vn 0.000000 0.217545 -0.976050
vn 0.000000 0.217545 -0.976050
vn 0.000000 0.217545 -0.976050
vn 0.000000 0.217545 -0.976050
vn -0.976170 0.217006 0.000010
vn -0.976170 0.217006 0.000010
vn -0.976170 0.217006 0.000010
vn -0.976170 0.217006 0.000010
vn 0.217636 -0.000382 0.976030
vn 0.217636 -0.000382 0.976030
vn 0.217636 -0.000382 0.976030
vn 0.217636 -0.000382 0.976030
vn 0.215675 -0.976465 -0.000349
vn 0.215675 -0.976465 -0.000349
vn 0.215675 -0.976465 -0.000349
vn 0.215675 -0.976465 -0.000349
vn 0.218581 -0.000389 -0.975819
vn 0.218581 -0.000389 -0.975819
vn 0.218581 -0.000389 -0.975819
vn 0.218581 -0.000389 -0.975819
vn 0.221346 0.975195 -0.000352
vn 0.221346 0.975195 -0.000352
vn 0.221346 0.975195 -0.000352
vn 0.221346 0.975195 -0.000352
vt 0.753872 0.917930
vt 0.753872 0.916456
vt 0.753872 0.908528
vt 0.753872 0.910002
vt 0.755283 0.910002
vt 0.755283 0.908528
vt 0.755283 0.916456
vt 0.755283 0.917930
vt 0.761615 0.917930
vt 0.761615 0.916456
vt 0.761615 0.908528
vt 0.761615 0.910002
vt 0.763026 0.910002
vt 0.763026 0.908528
vt 0.763026 0.916456
vt 0.763026 0.917930
vt 0.763150 0.917806
vt 0.761676 0.917806
vt 0.753748 0.917806
vt 0.755222 0.917806
vt 0.755222 0.916395
vt 0.753748 0.916395
vt 0.761676 0.916395
vt 0.763150 0.916395
vt 0.763150 0.910063
vt 0.761676 0.910063
vt 0.753748 0.910063
vt 0.755222 0.910063
vt 0.755222 0.908652
vt 0.753748 0.908652
vt 0.761676 0.908652
vt 0.763150 0.908652
vt 0.763150 0.910002
vt 0.761676 0.908528
vt 0.753748 0.916456
vt 0.755222 0.917930
vt 0.755222 0.917930
vt 0.753748 0.916456
vt 0.761676 0.908528
vt 0.763150 0.910002
vt 0.763150 0.910002
vt 0.761676 0.908528
vt 0.753748 0.916456
vt 0.755222 0.917930
vt 0.755222 0.917930
vt 0.753748 0.916456
vt 0.761676 0.908528
vt 0.763150 0.910002
vt 0.754427 0.935792
vt 0.754427 0.935792
vt 0.760236 0.935792
vt 0.760236 0.935792
vt 0.754427 0.944288
vt 0.754427 0.944288
vt 0.760236 0.944288
vt 0.760236 0.944288
vt 0.755545 0.916129
vt 0.761353 0.916129
vt 0.761353 0.910320
vt 0.755545 0.910320
vt 0.753083 0.942944
vt 0.753083 0.942944
vt 0.753083 0.937136
vt 0.753083 0.937136
vt 0.760236 0.942944
vt 0.754427 0.942944
vt 0.754427 0.937136
vt 0.760236 0.937136
vt 0.761580 0.942944
vt 0.761580 0.942944
vt 0.761580 0.937136
vt 0.761580 0.937136
vt 0.753498 0.908283
vt 0.753516 0.908300
vt 0.755392 0.908297
vt 0.755392 0.908286
vt 0.763382 0.908300
vt 0.761506 0.908297
vt 0.763399 0.908283
vt 0.761506 0.908286
vt 0.753533 0.918150
vt 0.753516 0.918168
vt 0.755392 0.918164
vt 0.755392 0.918153
vt 0.763383 0.918166
vt 0.761506 0.918163
vt 0.763366 0.918148
vt 0.761506 0.918152
vt 0.753527 0.916281
vt 0.753516 0.916281
vt 0.753516 0.910167
vt 0.753505 0.910167
vt 0.763383 0.916281
vt 0.763372 0.916281
vt 0.763393 0.910167
vt 0.763382 0.910167
vt 0.761506 0.916282
vt 0.755392 0.916282
vt 0.761506 0.910167
vt 0.755392 0.910167
vt 0.755392 0.916282
vt 0.761506 0.916282
vt 0.755392 0.910167
vt 0.761506 0.910167
vt 0.755545 0.908976
vt 0.755545 0.908976
vt 0.761353 0.908976
vt 0.761353 0.908976
vt 0.755545 0.917473
vt 0.755545 0.917473
vt 0.761353 0.917473
vt 0.761353 0.917473
vt 0.754201 0.916129
vt 0.754201 0.916129
vt 0.754201 0.910320
vt 0.754201 0.910320
vt 0.755545 0.916129
vt 0.761353 0.916129
vt 0.755545 0.910320
vt 0.761353 0.910320
vt 0.762697 0.916129
vt 0.762697 0.916129
vt 0.762698 0.910320
vt 0.762698 0.910320
g Generic
usemtl lowpoly-material
f 4/1/1 3/2/2 2/3/3 1/4/4 
f 5/5/5 6/6/6 7/7/7 8/8/8 
f 6/6/9 5/5/10 1/4/11 2/3/12 
f 7/7/13 6/6/14 2/3/15 3/2/16 
f 8/8/17 7/7/18 3/2/19 4/1/20 
f 5/5/21 8/8/22 4/1/23 1/4/24 
f 12/9/25 11/10/26 10/11/27 9/12/28 
f 13/13/29 14/14/30 15/15/31 16/16/32 
f 14/14/33 13/13/34 9/12/35 10/11/36 
f 15/15/37 14/14/38 10/11/39 11/10/40 
f 16/16/41 15/15/42 11/10/43 12/9/44 
f 13/13/45 16/16/46 12/9/47 9/12/48 
f 20/17/49 19/18/50 18/19/51 17/20/52 
f 21/21/53 22/22/54 23/23/55 24/24/56 
f 22/22/57 21/21/58 17/20/59 18/19/60 
f 23/23/61 22/22/62 18/19/63 19/18/64 
f 24/24/65 23/23/66 19/18/67 20/17/68 
f 21/21/69 24/24/70 20/17/71 17/20/72 
f 28/25/73 27/26/74 26/27/75 25/28/76 
f 29/29/77 30/30/78 31/31/79 32/32/80 
f 30/30/81 29/29/82 25/28/83 26/27/84 
f 31/31/85 30/30/86 26/27/87 27/26/88 
f 32/32/89 31/31/90 27/26/91 28/25/92 
f 29/29/93 32/32/94 28/25/95 25/28/96 
f 36/33/97 35/34/98 34/35/99 33/36/100 
f 37/37/101 38/38/102 39/39/103 40/40/104 
f 38/38/105 37/37/106 33/36/107 34/35/108 
f 39/39/109 38/38/110 34/35/111 35/34/112 
f 40/40/113 39/39/114 35/34/115 36/33/116 
f 37/37/117 40/40/118 36/33/119 33/36/120 
f 44/41/121 43/42/122 42/43/123 41/44/124 
f 45/45/125 46/46/126 47/47/127 48/48/128 
f 46/46/129 45/45/130 41/44/131 42/43/132 
f 47/47/133 46/46/134 42/43/135 43/42/136 
f 48/48/137 47/47/138 43/42/139 44/41/140 
f 45/45/141 48/48/142 44/41/143 41/44/144 
f 81/49/145 82/50/146 83/51/147 84/52/148 
f 85/53/149 86/54/150 87/55/151 88/56/152 
f 90/57/153 89/58/154 91/59/155 92/60/156 
f 94/61/157 93/62/158 95/63/159 96/64/160 
f 98/65/161 97/66/162 99/67/163 100/68/164 
f 102/69/165 101/70/166 103/71/167 104/72/168 
f 52/73/169 50/74/170 58/75/171 57/76/172 
f 50/74/173 49/77/174 59/78/175 58/75/176 
f 49/77/177 51/79/178 60/80/179 59/78/180 
f 51/79/181 52/73/182 57/76/183 60/80/184 
f 54/81/185 56/82/186 62/83/187 61/84/188 
f 56/82/189 55/85/190 63/86/191 62/83/192 
f 55/85/193 53/87/194 64/88/195 63/86/196 
f 53/87/197 54/81/198 61/84/199 64/88/200 
f 56/82/201 54/81/202 65/89/203 66/90/204 
f 54/81/205 50/74/206 67/91/207 65/89/208 
f 50/74/209 52/73/210 68/92/211 67/91/212 
f 52/73/213 56/82/214 66/90/215 68/92/216 
f 53/87/217 55/85/218 69/93/219 70/94/220 
f 55/85/221 51/79/222 71/95/223 69/93/224 
f 51/79/225 49/77/226 72/96/227 71/95/228 
f 49/77/229 53/87/230 70/94/231 72/96/232 
f 54/81/233 53/87/234 73/97/235 74/98/236 
f 53/87/237 49/77/238 75/99/239 73/97/240 
f 49/77/241 50/74/242 76/100/243 75/99/244 
f 50/74/245 54/81/246 74/98/247 76/100/248 
f 55/85/249 56/82/250 77/101/251 78/102/252 
f 56/82/253 52/73/254 79/103/255 77/101/256 
f 52/73/257 51/79/258 80/104/259 79/103/260 
f 51/79/261 55/85/262 78/102/263 80/104/264 
f 57/76/265 58/75/266 82/105/267 81/106/268 
f 58/75/269 59/78/270 83/107/271 82/105/272 
f 59/78/273 60/80/274 84/108/275 83/107/276 
f 60/80/277 57/76/278 81/106/279 84/108/280 
f 61/84/281 62/83/282 86/109/283 85/110/284 
f 62/83/285 63/86/286 87/111/287 86/109/288 
f 63/86/289 64/88/290 88/112/291 87/111/292 
f 64/88/293 61/84/294 85/110/295 88/112/296 
f 74/98/297 73/97/298 89/58/299 90/57/300 
f 73/97/301 75/99/302 91/59/303 89/58/304 
f 75/99/305 76/100/306 92/60/307 91/59/308 
f 76/100/309 74/98/310 90/57/311 92/60/312 
f 66/90/313 65/89/314 93/113/315 94/114/316 
f 65/89/317 67/91/318 95/115/319 93/113/320 
f 67/91/321 68/92/322 96/116/323 95/115/324 
f 68/92/325 66/90/326 94/114/327 96/116/328 
f 78/102/329 77/101/330 97/117/331 98/118/332 
f 77/101/333 79/103/334 99/119/335 97/117/336 
f 79/103/337 80/104/338 100/120/339 99/119/340 
f 80/104/341 78/102/342 98/118/343 100/120/344 
f 70/94/345 69/93/346 101/121/347 102/122/348 
f 69/93/349 71/95/350 103/123/351 101/121/352 
f 71/95/353 72/96/354 104/124/355 103/123/356 
f 72/96/357 70/94/358 102/122/359 104/124/360 
