mtllib vest.mtl
o vest.obj
v 0.129608 0.541375 0.173404
v 0.191851 0.541375 0.173404
v 0.129608 0.667299 0.173404
v 0.191851 0.667299 0.173404
v 0.129608 0.541375 0.245141
v 0.191851 0.541375 0.245141
v 0.129608 0.667299 0.245141
v 0.191851 0.667299 0.245141
v 0.047992 0.541375 0.173404
v 0.110235 0.541375 0.173404
v 0.047992 0.667299 0.173404
v 0.110235 0.667299 0.173404
v 0.047992 0.541375 0.245141
v 0.110235 0.541375 0.245141
v 0.047992 0.667299 0.245141
v 0.110235 0.667299 0.245141
v -0.129608 0.541375 0.173404
v -0.191851 0.541375 0.173404
v -0.129608 0.667299 0.173404
v -0.191851 0.667299 0.173404
v -0.129608 0.541375 0.245141
v -0.191851 0.541375 0.245141
v -0.129608 0.667299 0.245141
v -0.191851 0.667299 0.245141
v -0.047992 0.541375 0.173404
v -0.110235 0.541375 0.173404
v -0.047992 0.667299 0.173404
v -0.110235 0.667299 0.173404
v -0.047992 0.541375 0.245141
v -0.110235 0.541375 0.245141
v -0.047992 0.667299 0.245141
v -0.110235 0.667299 0.245141
v 0.137482 0.696316 0.224666
v 0.159033 0.793458 0.224666
v -0.159033 0.793458 0.224666
v -0.137482 0.696316 0.224666
v 0.159033 0.793458 0.152930
v 0.137482 0.696316 0.152930
v -0.137482 0.696316 0.152930
v -0.159033 0.793458 0.152930
v 0.239569 0.518361 0.204178
v 0.204113 0.975129 0.224936
v 0.000000 0.818400 0.217723
v 0.000000 0.519202 0.204116
v -0.204112 0.975129 0.224936
v -0.239569 0.518361 0.204178
v 0.204076 0.975194 -0.234191
v 0.239551 0.518347 -0.214506
v 0.000000 0.519140 -0.214543
v 0.000000 0.918140 -0.231735
v -0.204076 0.975194 -0.234191
v -0.239551 0.518347 -0.214506
v 0.133210 0.976318 0.224961
v -0.133209 0.976318 0.224961
v 0.133264 0.976354 -0.234242
v -0.133264 0.976354 -0.234242
v 0.064915 0.838987 0.218687
v -0.064605 0.918185 -0.231736
v -0.064915 0.838987 0.218687
v 0.064606 0.918185 -0.231736
v 0.264075 0.857638 0.219618
v -0.264075 0.857638 0.219618
v 0.264072 0.857701 -0.229127
v -0.264072 0.857701 -0.229127
v 0.000000 0.667810 0.210875
v -0.239588 0.687074 0.211851
v 0.239572 0.687159 -0.221780
v 0.000000 0.714990 -0.222982
v -0.239571 0.687159 -0.221780
v 0.239588 0.687074 0.211851
v 0.221931 0.519630 0.189423
v 0.254498 0.964074 0.214500
v -0.254497 0.964074 0.214500
v -0.221931 0.519630 0.189423
v 0.254498 0.964074 -0.214500
v 0.221931 0.519629 -0.189150
v -0.254498 0.964074 -0.214500
v -0.221931 0.519629 -0.189150
v 0.000000 0.964074 0.214500
v 0.000000 0.519630 0.189423
v 0.000000 0.519629 -0.189150
v 0.000000 0.964074 -0.214500
v 0.129972 0.725532 -0.165470
v 0.159033 0.837624 -0.165470
v -0.159033 0.837624 -0.165470
v -0.129972 0.725532 -0.165470
v 0.159033 0.837624 -0.237207
v 0.129972 0.725532 -0.237207
v -0.129972 0.725532 -0.237207
v -0.159033 0.837624 -0.237207
v 0.129972 0.576906 -0.165470
v 0.159033 0.688998 -0.165470
v -0.159033 0.688998 -0.165470
v -0.129972 0.576906 -0.165470
v 0.159033 0.688998 -0.237207
v 0.129972 0.576906 -0.237207
v -0.129972 0.576906 -0.237207
v -0.159033 0.688998 -0.237207
vn 0.000000 0.000000 -1.000000
vn 0.000000 0.000000 -1.000000
vn 0.000000 0.000000 -1.000000
vn 0.000000 0.000000 -1.000000
vn 0.000000 0.000000 -1.000000
vn 0.000000 0.000000 -1.000000
vn 0.000000 0.000000 -1.000000
vn 0.000000 0.000000 -1.000000
vn 0.000000 0.000000 1.000000
vn 0.000000 0.000000 1.000000
vn 0.000000 0.000000 1.000000
vn 0.000000 0.000000 1.000000
vn 0.000000 0.000000 1.000000
vn 0.000000 0.000000 1.000000
vn 0.000000 0.000000 1.000000
vn 0.000000 0.000000 1.000000
vn 0.000000 -1.000000 0.000000
vn 0.000000 -1.000000 0.000000
vn 0.000000 -1.000000 0.000000
vn 0.000000 -1.000000 0.000000
vn 0.000000 -1.000000 0.000000
vn 0.000000 -1.000000 0.000000
vn 0.000000 -1.000000 0.000000
vn 0.000000 -1.000000 0.000000
vn 1.000000 -0.000000 0.000000
vn 1.000000 -0.000000 0.000000
vn 1.000000 -0.000000 0.000000
vn 1.000000 -0.000000 0.000000
vn -1.000000 0.000000 0.000000
vn -1.000000 0.000000 0.000000
vn -1.000000 0.000000 0.000000
vn -1.000000 0.000000 0.000000
vn 0.000000 1.000000 0.000000
vn 0.000000 1.000000 0.000000
vn 0.000000 1.000000 0.000000
vn 0.000000 1.000000 0.000000
vn 0.000000 1.000000 0.000000
vn 0.000000 1.000000 0.000000
vn 0.000000 1.000000 0.000000
vn 0.000000 1.000000 0.000000
vn -1.000000 -0.000000 -0.000000
vn -1.000000 -0.000000 -0.000000
vn -1.000000 -0.000000 -0.000000
vn -1.000000 -0.000000 -0.000000
vn 1.000000 0.000000 -0.000000
vn 1.000000 0.000000 -0.000000
vn 1.000000 0.000000 -0.000000
vn 1.000000 0.000000 -0.000000
vn 0.000000 0.000000 -1.000000
vn 0.000000 0.000000 -1.000000
vn 0.000000 0.000000 -1.000000
vn 0.000000 0.000000 -1.000000
vn 0.000000 0.000000 -1.000000
vn 0.000000 0.000000 -1.000000
vn 0.000000 0.000000 -1.000000
vn 0.000000 0.000000 -1.000000
vn 0.000000 0.000000 1.000000
vn 0.000000 0.000000 1.000000
vn 0.000000 0.000000 1.000000
vn 0.000000 0.000000 1.000000
vn 0.000000 0.000000 1.000000
vn 0.000000 0.000000 1.000000
vn 0.000000 0.000000 1.000000
vn 0.000000 0.000000 1.000000
vn 0.000000 -1.000000 0.000000
vn 0.000000 -1.000000 0.000000
vn 0.000000 -1.000000 0.000000
vn 0.000000 -1.000000 0.000000
vn 0.000000 -1.000000 0.000000
vn 0.000000 -1.000000 0.000000
vn 0.000000 -1.000000 0.000000
vn 0.000000 -1.000000 0.000000
vn 1.000000 -0.000000 0.000000
vn 1.000000 -0.000000 0.000000
vn 1.000000 -0.000000 0.000000
vn 1.000000 -0.000000 0.000000
vn -1.000000 0.000000 0.000000
vn -1.000000 0.000000 0.000000
vn -1.000000 0.000000 0.000000
vn -1.000000 0.000000 0.000000
vn 0.000000 1.000000 0.000000
vn 0.000000 1.000000 0.000000
vn 0.000000 1.000000 0.000000
vn 0.000000 1.000000 0.000000
vn 0.000000 1.000000 0.000000
vn 0.000000 1.000000 0.000000
vn 0.000000 1.000000 0.000000
vn 0.000000 1.000000 0.000000
vn -1.000000 -0.000000 -0.000000
vn -1.000000 -0.000000 -0.000000
vn -1.000000 -0.000000 -0.000000
vn -1.000000 -0.000000 -0.000000
vn 1.000000 0.000000 -0.000000
vn 1.000000 0.000000 -0.000000
vn 1.000000 0.000000 -0.000000
vn 1.000000 0.000000 -0.000000
vn 0.000000 0.000000 1.000000
vn 0.000000 0.000000 1.000000
vn 0.000000 0.000000 1.000000
vn 0.000000 0.000000 1.000000
vn 0.000000 0.000000 -1.000000
vn 0.000000 0.000000 -1.000000
vn 0.000000 0.000000 -1.000000
vn 0.000000 0.000000 -1.000000
vn 0.000000 -1.000000 0.000000
vn 0.000000 -1.000000 0.000000
vn 0.000000 -1.000000 0.000000
vn 0.000000 -1.000000 0.000000
vn 0.976264 -0.216584 0.000000
vn 0.976264 -0.216584 0.000000
vn 0.976264 -0.216584 0.000000
vn 0.976264 -0.216584 0.000000
vn 0.000000 1.000000 0.000000
vn 0.000000 1.000000 0.000000
vn 0.000000 1.000000 0.000000
vn 0.000000 1.000000 0.000000
vn -0.976264 -0.216584 -0.000000
vn -0.976264 -0.216584 -0.000000
vn -0.976264 -0.216584 -0.000000
vn -0.976264 -0.216584 -0.000000
vn -0.000416 -0.045433 0.998967
vn -0.000416 -0.045433 0.998967
vn -0.000416 -0.045433 0.998967
vn -0.000416 -0.045433 0.998967
vn 0.000416 -0.045433 0.998967
vn 0.000416 -0.045433 0.998967
vn 0.000416 -0.045433 0.998967
vn 0.000416 -0.045433 0.998967
vn 0.000014 -0.043048 -0.999073
vn 0.000014 -0.043048 -0.999073
vn 0.000014 -0.043048 -0.999073
vn 0.000014 -0.043048 -0.999073
vn 0.000014 -0.043048 -0.999073
vn 0.000014 -0.043048 -0.999073
vn 0.000014 -0.043048 -0.999073
vn 0.890707 0.454577 0.000057
vn 0.890707 0.454577 0.000057
vn 0.890707 0.454577 0.000057
vn 0.890707 0.454577 0.000057
vn -1.000000 -0.000110 -0.000038
vn -1.000000 -0.000110 -0.000038
vn -1.000000 -0.000110 -0.000038
vn -1.000000 -0.000110 -0.000038
vn -0.000014 -0.043048 -0.999073
vn -0.000014 -0.043048 -0.999073
vn -0.000014 -0.043048 -0.999073
vn -0.000014 -0.043048 -0.999073
vn -0.000014 -0.043048 -0.999073
vn -0.000014 -0.043048 -0.999073
vn -0.000014 -0.043048 -0.999073
vn -0.016770 0.999859 0.000080
vn -0.016770 0.999859 0.000080
vn -0.016770 0.999859 0.000080
vn -0.016770 0.999859 0.000080
vn -0.300371 0.939376 0.165376
vn -0.300371 0.939376 0.165376
vn -0.300371 0.939376 0.165376
vn -0.300371 0.939376 0.165376
vn 0.894072 0.441050 0.078164
vn 0.894072 0.441050 0.078164
vn 0.894072 0.441050 0.078164
vn 0.894072 0.441050 0.078164
vn 0.016770 0.999859 0.000141
vn 0.016770 0.999859 0.000141
vn 0.016770 0.999859 0.000141
vn 0.016770 0.999859 0.000141
vn -0.895391 0.445280 -0.000071
vn -0.895391 0.445280 -0.000071
vn -0.895391 0.445280 -0.000071
vn -0.895391 0.445280 -0.000071
vn 0.298559 0.931726 0.206760
vn 0.298559 0.931726 0.206760
vn 0.298559 0.931726 0.206760
vn 0.298559 0.931726 0.206760
vn 0.989851 -0.142107 -0.000065
vn 0.989851 -0.142107 -0.000065
vn 0.989851 -0.142107 -0.000065
vn 0.989851 -0.142107 -0.000065
vn -0.890706 0.454579 -0.000006
vn -0.890706 0.454579 -0.000006
vn -0.890706 0.454579 -0.000006
vn -0.890706 0.454579 -0.000006
vn -0.000416 -0.045432 0.998967
vn -0.000416 -0.045432 0.998967
vn -0.000416 -0.045432 0.998967
vn -0.000416 -0.045432 0.998967
vn -0.000416 -0.045432 0.998967
vn -0.000416 -0.045432 0.998967
vn -0.000416 -0.045432 0.998967
vn 0.000416 -0.045432 0.998967
vn 0.000416 -0.045432 0.998967
vn 0.000416 -0.045432 0.998967
vn 0.000416 -0.045432 0.998967
vn 0.000416 -0.045432 0.998967
vn 0.000416 -0.045432 0.998967
vn 0.000416 -0.045432 0.998967
vn 0.000014 -0.043048 -0.999073
vn 0.000014 -0.043048 -0.999073
vn 0.000014 -0.043048 -0.999073
vn 0.000014 -0.043048 -0.999073
vn -0.000014 -0.043048 -0.999073
vn -0.000014 -0.043048 -0.999073
vn -0.000014 -0.043048 -0.999073
vn -0.000014 -0.043048 -0.999073
vn -0.989851 -0.142109 -0.000027
vn -0.989851 -0.142109 -0.000027
vn -0.989851 -0.142109 -0.000027
vn -0.989851 -0.142109 -0.000027
vn 1.000000 -0.000110 -0.000042
vn 1.000000 -0.000110 -0.000042
vn 1.000000 -0.000110 -0.000042
vn 1.000000 -0.000110 -0.000042
vn 0.000000 -0.056332 0.998412
vn 0.000000 -0.056332 0.998412
vn 0.000000 -0.056332 0.998412
vn 0.000000 -0.056332 0.998412
vn -0.000000 -0.056944 -0.998377
vn -0.000000 -0.056944 -0.998377
vn -0.000000 -0.056944 -0.998377
vn -0.000000 -0.056944 -0.998377
vn 0.997326 -0.073079 0.000000
vn 0.997326 -0.073079 0.000000
vn 0.997326 -0.073079 0.000000
vn 0.997326 -0.073079 0.000000
vn -0.997326 -0.073078 0.000001
vn -0.997326 -0.073078 0.000001
vn -0.997326 -0.073078 0.000001
vn -0.997326 -0.073078 0.000001
vn 0.000000 1.000000 -0.000001
vn 0.000000 1.000000 -0.000001
vn 0.000000 1.000000 -0.000001
vn 0.000000 1.000000 -0.000001
vn 0.000000 -0.056332 0.998412
vn 0.000000 -0.056332 0.998412
vn 0.000000 -0.056332 0.998412
vn 0.000000 -0.056332 0.998412
vn 0.000000 -0.056944 -0.998377
vn 0.000000 -0.056944 -0.998377
vn 0.000000 -0.056944 -0.998377
vn 0.000000 -0.056944 -0.998377
vn 0.000000 1.000000 -0.000001
vn 0.000000 1.000000 -0.000001
vn 0.000000 1.000000 -0.000001
vn 0.000000 1.000000 -0.000001
vn 0.000000 0.000000 1.000000
vn 0.000000 0.000000 1.000000
vn 0.000000 0.000000 1.000000
vn 0.000000 0.000000 1.000000
vn 0.000000 0.000000 -1.000000
vn 0.000000 0.000000 -1.000000
vn 0.000000 0.000000 -1.000000
vn 0.000000 0.000000 -1.000000
vn 0.000000 -1.000000 0.000000
vn 0.000000 -1.000000 0.000000
vn 0.000000 -1.000000 0.000000
vn 0.000000 -1.000000 0.000000
vn 0.967996 -0.250965 0.000000
vn 0.967996 -0.250965 0.000000
vn 0.967996 -0.250965 0.000000
vn 0.967996 -0.250965 0.000000
vn 0.000000 1.000000 0.000000
vn 0.000000 1.000000 0.000000
vn 0.000000 1.000000 0.000000
vn 0.000000 1.000000 0.000000
vn -0.967996 -0.250965 -0.000000
vn -0.967996 -0.250965 -0.000000
vn -0.967996 -0.250965 -0.000000
vn -0.967996 -0.250965 -0.000000
vn 0.000000 0.000000 1.000000
vn 0.000000 0.000000 1.000000
vn 0.000000 0.000000 1.000000
vn 0.000000 0.000000 1.000000
vn 0.000000 0.000000 -1.000000
vn 0.000000 0.000000 -1.000000
vn 0.000000 0.000000 -1.000000
vn 0.000000 0.000000 -1.000000
vn 0.000000 -1.000000 0.000000
vn 0.000000 -1.000000 0.000000
vn 0.000000 -1.000000 0.000000
vn 0.000000 -1.000000 0.000000
vn 0.967996 -0.250965 0.000000
vn 0.967996 -0.250965 0.000000
vn 0.967996 -0.250965 0.000000
vn 0.967996 -0.250965 0.000000
vn 0.000000 1.000000 0.000000
vn 0.000000 1.000000 0.000000
vn 0.000000 1.000000 0.000000
vn 0.000000 1.000000 0.000000
vn -0.967996 -0.250965 -0.000000
vn -0.967996 -0.250965 -0.000000
vn -0.967996 -0.250965 -0.000000
vn -0.967996 -0.250965 -0.000000
vt 0.309798 0.411235
vt 0.309798 0.411235
vt 0.307203 0.411235
vt 0.307203 0.411235
vt 0.307203 0.411235
vt 0.307203 0.411235
vt 0.309798 0.411235
vt 0.309798 0.411235
vt 0.309798 0.408640
vt 0.309798 0.408640
vt 0.307203 0.408640
vt 0.307203 0.408640
vt 0.307203 0.408640
vt 0.307203 0.408640
vt 0.309798 0.408640
vt 0.309798 0.408640
vt 0.309798 0.411235
vt 0.309798 0.411235
vt 0.307203 0.411235
vt 0.307203 0.411235
vt 0.307203 0.411235
vt 0.307203 0.411235
vt 0.309798 0.411235
vt 0.309798 0.411235
vt 0.309798 0.408640
vt 0.309798 0.408640
vt 0.307203 0.408640
vt 0.307203 0.408640
vt 0.307203 0.408640
vt 0.307203 0.408640
vt 0.309798 0.408640
vt 0.309798 0.408640
vt 0.309798 0.408640
vt 0.309798 0.408640
vt 0.307203 0.408640
vt 0.307203 0.408640
vt 0.309798 0.411235
vt 0.309798 0.411235
vt 0.307203 0.411235
vt 0.307203 0.411235
vt 0.324673 0.385477
vt 0.324719 0.385441
vt 0.323612 0.385404
vt 0.323612 0.385477
vt 0.322506 0.385441
vt 0.322551 0.385477
vt 0.323923 0.387458
vt 0.324234 0.387458
vt 0.324855 0.387458
vt 0.324764 0.387385
vt 0.324719 0.387348
vt 0.323612 0.387385
vt 0.323612 0.387458
vt 0.324855 0.385332
vt 0.324764 0.385404
vt 0.322506 0.387348
vt 0.322551 0.387312
vt 0.323302 0.387458
vt 0.322460 0.387385
vt 0.322369 0.387458
vt 0.322991 0.387458
vt 0.322369 0.385332
vt 0.322991 0.385332
vt 0.323612 0.385332
vt 0.323923 0.385332
vt 0.323302 0.385332
vt 0.324234 0.385332
vt 0.322460 0.385404
vt 0.324673 0.387312
vt 0.323612 0.387312
vt 0.309830 0.408640
vt 0.310071 0.408449
vt 0.308423 0.408449
vt 0.308423 0.408640
vt 0.310071 0.411267
vt 0.309830 0.411075
vt 0.308423 0.411075
vt 0.308423 0.411267
vt 0.307016 0.408640
vt 0.306774 0.408449
vt 0.306774 0.411267
vt 0.307016 0.411075
vt 0.309798 0.408640
vt 0.309798 0.408640
vt 0.307203 0.408640
vt 0.307203 0.408640
vt 0.309798 0.411235
vt 0.309798 0.411235
vt 0.307203 0.411235
vt 0.307203 0.411235
vt 0.309798 0.408640
vt 0.309798 0.408640
vt 0.307203 0.408640
vt 0.307203 0.408640
vt 0.309798 0.411235
vt 0.309798 0.411235
vt 0.307203 0.411235
vt 0.307203 0.411235
g vest
usemtl lowpoly_texture
f 4/1/1 2/2/2 1/3/3 3/4/4 
f 19/5/5 17/6/6 18/7/7 20/8/8 
f 6/9/9 8/10/10 7/11/11 5/12/12 
f 21/13/13 23/14/14 24/15/15 22/16/16 
f 6/9/17 5/12/18 1/3/19 2/2/20 
f 18/7/21 17/6/22 21/13/23 22/16/24 
f 8/10/25 6/9/26 2/2/27 4/1/28 
f 20/8/29 18/7/30 22/16/31 24/15/32 
f 7/11/33 8/10/34 4/1/35 3/4/36 
f 19/5/37 20/8/38 24/15/39 23/14/40 
f 5/12/41 7/11/42 3/4/43 1/3/44 
f 17/6/45 19/5/46 23/14/47 21/13/48 
f 12/17/49 10/18/50 9/19/51 11/20/52 
f 27/21/53 25/22/54 26/23/55 28/24/56 
f 14/25/57 16/26/58 15/27/59 13/28/60 
f 29/29/61 31/30/62 32/31/63 30/32/64 
f 14/25/65 13/28/66 9/19/67 10/18/68 
f 26/23/69 25/22/70 29/29/71 30/32/72 
f 16/26/73 14/25/74 10/18/75 12/17/76 
f 28/24/77 26/23/78 30/32/79 32/31/80 
f 15/27/81 16/26/82 12/17/83 11/20/84 
f 27/21/85 28/24/86 32/31/87 31/30/88 
f 13/28/89 15/27/90 11/20/91 9/19/92 
f 25/22/93 27/21/94 31/30/95 29/29/96 
f 33/33/97 34/34/98 35/35/99 36/36/100 
f 37/37/101 38/38/102 39/39/103 40/40/104 
f 33/33/105 36/36/106 39/39/107 38/38/108 
f 34/34/109 33/33/110 38/38/111 37/37/112 
f 35/35/113 34/34/114 37/37/115 40/40/116 
f 36/36/117 35/35/118 40/40/119 39/39/120 
f 41/41/121 70/42/122 65/43/123 44/44/124 
f 44/44/125 65/43/126 66/45/127 46/46/128 
f 60/47/129 55/48/130 47/49/131 63/50/132 67/51/133 68/52/134 50/53/135 
f 42/54/136 61/55/137 63/50/138 47/49/139 
f 46/46/140 66/45/141 69/56/142 52/57/143 
f 58/58/144 50/53/145 68/52/146 69/56/147 64/59/148 51/60/149 56/61/150 
f 45/62/151 54/63/152 56/61/153 51/60/154 
f 43/64/155 57/65/156 60/47/157 50/53/158 
f 54/63/159 59/66/160 58/58/161 56/61/162 
f 53/67/163 42/54/164 47/49/165 55/48/166 
f 57/65/167 53/67/168 55/48/169 60/47/170 
f 59/66/171 43/64/172 50/53/173 58/58/174 
f 61/55/175 70/42/176 67/51/177 63/50/178 
f 62/68/179 45/62/180 51/60/181 64/59/182 
f 70/42/183 61/55/184 42/54/185 53/67/186 57/65/187 43/64/188 65/43/189 
f 65/43/190 43/64/191 59/66/192 54/63/193 45/62/194 62/68/195 66/45/196 
f 67/51/197 48/69/198 49/70/199 68/52/200 
f 68/52/201 49/70/202 52/57/203 69/56/204 
f 66/45/205 62/68/206 64/59/207 69/56/208 
f 70/42/209 41/41/210 48/69/211 67/51/212 
f 71/71/213 72/72/214 79/73/215 80/74/216 
f 75/75/217 76/76/218 81/77/219 82/78/220 
f 72/72/221 71/71/222 76/76/223 75/75/224 
f 74/79/225 73/80/226 77/81/227 78/82/228 
f 77/81/229 73/80/230 79/73/231 82/78/232 
f 79/73/233 73/80/234 74/79/235 80/74/236 
f 81/77/237 78/82/238 77/81/239 82/78/240 
f 79/73/241 72/72/242 75/75/243 82/78/244 
f 83/83/245 84/84/246 85/85/247 86/86/248 
f 87/87/249 88/88/250 89/89/251 90/90/252 
f 83/83/253 86/86/254 89/89/255 88/88/256 
f 84/84/257 83/83/258 88/88/259 87/87/260 
f 85/85/261 84/84/262 87/87/263 90/90/264 
f 86/86/265 85/85/266 90/90/267 89/89/268 
f 91/91/269 92/92/270 93/93/271 94/94/272 
f 95/95/273 96/96/274 97/97/275 98/98/276 
f 91/91/277 94/94/278 97/97/279 96/96/280 
f 92/92/281 91/91/282 96/96/283 95/95/284 
f 93/93/285 92/92/286 95/95/287 98/98/288 
f 94/94/289 93/93/290 98/98/291 97/97/292 
