mtllib cloud04.mtl
o cloud04.obj
v 1.124170 0.297565 -0.367714
v 0.767355 0.972811 -0.127237
v 0.906586 0.506722 0.408254
v -0.551711 -0.864076 -1.084884
v -0.313250 -1.165690 -0.668433
v -0.938351 -0.837264 -0.516598
v -0.913790 -0.193996 -0.867274
v -0.577252 0.340032 -0.971499
v -0.068135 -0.715725 -1.250000
v -1.211997 -0.107420 -0.274681
v -1.250000 -0.418328 0.390325
v -1.197436 0.235387 0.259697
v -0.946237 0.579159 -0.444893
v -0.726759 0.904631 -0.418655
v 0.051120 0.107164 -1.076077
v -0.398191 1.094355 -0.407280
v 0.808156 0.710871 -0.488175
v -0.855458 0.677074 0.399945
v -0.308849 1.113818 0.301591
v 0.041408 1.250000 -0.030622
v 0.485822 0.969001 0.429093
v -0.340193 0.528850 0.888101
v -0.000533 0.084185 1.098830
v 1.070557 -0.085504 0.409580
v 0.706054 -0.505891 0.804788
v 1.029952 -0.655210 0.416138
v 1.250000 -0.283268 -0.181837
v -0.238530 -0.520009 1.250000
v 0.534399 -1.019946 0.681995
v 1.116177 -0.899285 -0.169133
v 0.504477 -1.209296 -0.514792
v 0.157265 -1.250000 0.315396
v -0.554443 -1.164604 0.286044
v -0.820446 -0.881936 0.754207
v -0.997123 -0.247601 0.774236
v -0.434039 -0.781575 1.145673
v 0.911335 -1.005126 -0.554136
v 0.817580 -0.450793 -0.892676
vn 0.895131 0.424354 0.136615
vn 0.895131 0.424354 0.136615
vn 0.895131 0.424354 0.136615
vn -0.499841 -0.811846 -0.301769
vn -0.499841 -0.811846 -0.301769
vn -0.499841 -0.811846 -0.301769
vn -0.803863 -0.260751 -0.534615
vn -0.803863 -0.260751 -0.534615
vn -0.803863 -0.260751 -0.534615
vn -0.404717 0.077217 -0.911176
vn -0.404717 0.077217 -0.911176
vn -0.404717 0.077217 -0.911176
vn -0.344180 0.080784 -0.935422
vn -0.344180 0.080784 -0.935422
vn -0.344180 0.080784 -0.935422
vn -0.887379 -0.194095 -0.418194
vn -0.887379 -0.194095 -0.418194
vn -0.887379 -0.194095 -0.418194
vn -0.938437 -0.289254 -0.188862
vn -0.938437 -0.289254 -0.188862
vn -0.938437 -0.289254 -0.188862
vn -0.996886 0.075862 -0.021502
vn -0.996886 0.075862 -0.021502
vn -0.996886 0.075862 -0.021502
vn -0.858784 0.217404 -0.463923
vn -0.858784 0.217404 -0.463923
vn -0.858784 0.217404 -0.463923
vn -0.931760 0.316606 -0.177715
vn -0.931760 0.316606 -0.177715
vn -0.931760 0.316606 -0.177715
vn -0.828084 0.560176 -0.021915
vn -0.828084 0.560176 -0.021915
vn -0.828084 0.560176 -0.021915
vn -0.081328 0.217371 -0.972695
vn -0.081328 0.217371 -0.972695
vn -0.081328 0.217371 -0.972695
vn -0.702345 0.318350 -0.636683
vn -0.702345 0.318350 -0.636683
vn -0.702345 0.318350 -0.636683
vn -0.612240 0.464442 -0.639887
vn -0.612240 0.464442 -0.639887
vn -0.612240 0.464442 -0.639887
vn 0.082194 0.584354 -0.807326
vn 0.082194 0.584354 -0.807326
vn 0.082194 0.584354 -0.807326
vn -0.329958 0.614396 -0.716690
vn -0.329958 0.614396 -0.716690
vn -0.329958 0.614396 -0.716690
vn 0.136983 0.597571 -0.790028
vn 0.136983 0.597571 -0.790028
vn 0.136983 0.597571 -0.790028
vn -0.796468 0.603188 0.042456
vn -0.796468 0.603188 0.042456
vn -0.796468 0.603188 0.042456
vn -0.605834 0.785987 0.123243
vn -0.605834 0.785987 0.123243
vn -0.605834 0.785987 0.123243
vn -0.492776 0.839720 0.228127
vn -0.492776 0.839720 0.228127
vn -0.492776 0.839720 0.228127
vn -0.393553 0.918499 -0.038416
vn -0.393553 0.918499 -0.038416
vn -0.393553 0.918499 -0.038416
vn 0.088217 0.885582 0.456028
vn 0.088217 0.885582 0.456028
vn 0.088217 0.885582 0.456028
vn -0.410656 0.656460 0.632789
vn -0.410656 0.656460 0.632789
vn -0.410656 0.656460 0.632789
vn 0.015582 0.707535 0.706507
vn 0.015582 0.707535 0.706507
vn 0.015582 0.707535 0.706507
vn 0.178682 0.529489 0.829286
vn 0.178682 0.529489 0.829286
vn 0.178682 0.529489 0.829286
vn 0.372393 0.907430 0.194665
vn 0.372393 0.907430 0.194665
vn 0.372393 0.907430 0.194665
vn 0.698560 0.619699 0.357752
vn 0.698560 0.619699 0.357752
vn 0.698560 0.619699 0.357752
vn 0.799011 0.525992 -0.291400
vn 0.799011 0.525992 -0.291400
vn 0.799011 0.525992 -0.291400
vn 0.551841 0.154624 0.819490
vn 0.551841 0.154624 0.819490
vn 0.551841 0.154624 0.819490
vn 0.551104 0.265763 0.790983
vn 0.551104 0.265763 0.790983
vn 0.551104 0.265763 0.790983
vn 0.758491 -0.046578 0.650017
vn 0.758491 -0.046578 0.650017
vn 0.758491 -0.046578 0.650017
vn 0.948804 -0.064064 0.309301
vn 0.948804 -0.064064 0.309301
vn 0.948804 -0.064064 0.309301
vn 0.447248 0.370384 0.814116
vn 0.447248 0.370384 0.814116
vn 0.447248 0.370384 0.814116
vn 0.424896 0.058646 0.903340
vn 0.424896 0.058646 0.903340
vn 0.424896 0.058646 0.903340
vn 0.405352 -0.338227 0.849289
vn 0.405352 -0.338227 0.849289
vn 0.405352 -0.338227 0.849289
vn 0.953139 -0.202422 0.224836
vn 0.953139 -0.202422 0.224836
vn 0.953139 -0.202422 0.224836
vn 0.636854 -0.373741 0.674341
vn 0.636854 -0.373741 0.674341
vn 0.636854 -0.373741 0.674341
vn 0.671070 -0.643952 0.367411
vn 0.671070 -0.643952 0.367411
vn 0.671070 -0.643952 0.367411
vn -0.114657 -0.988714 -0.096430
vn -0.114657 -0.988714 -0.096430
vn -0.114657 -0.988714 -0.096430
vn -0.731824 -0.681480 -0.004347
vn -0.731824 -0.681480 -0.004347
vn -0.731824 -0.681480 -0.004347
vn -0.725154 -0.685284 0.067367
vn -0.725154 -0.685284 0.067367
vn -0.725154 -0.685284 0.067367
vn -0.484629 -0.866244 -0.121478
vn -0.484629 -0.866244 -0.121478
vn -0.484629 -0.866244 -0.121478
vn -0.051042 -0.998627 -0.011761
vn -0.051042 -0.998627 -0.011761
vn -0.051042 -0.998627 -0.011761
vn -0.762025 -0.231339 0.604814
vn -0.762025 -0.231339 0.604814
vn -0.762025 -0.231339 0.604814
vn -0.668717 -0.208785 0.713601
vn -0.668717 -0.208785 0.713601
vn -0.668717 -0.208785 0.713601
vn -0.197646 -0.884820 0.421936
vn -0.197646 -0.884820 0.421936
vn -0.197646 -0.884820 0.421936
vn 0.753252 -0.633530 0.176780
vn 0.753252 -0.633530 0.176780
vn 0.753252 -0.633530 0.176780
vn -0.518545 0.047066 0.853754
vn -0.518545 0.047066 0.853754
vn -0.518545 0.047066 0.853754
vn -0.447337 0.252663 0.857934
vn -0.447337 0.252663 0.857934
vn -0.447337 0.252663 0.857934
vn -0.180665 0.305109 0.935023
vn -0.180665 0.305109 0.935023
vn -0.180665 0.305109 0.935023
vn -0.575746 0.381032 0.723416
vn -0.575746 0.381032 0.723416
vn -0.575746 0.381032 0.723416
vn -0.855856 0.166658 0.489628
vn -0.855856 0.166658 0.489628
vn -0.855856 0.166658 0.489628
vn -0.708789 0.355274 0.609425
vn -0.708789 0.355274 0.609425
vn -0.708789 0.355274 0.609425
vn 0.449024 -0.893494 0.006727
vn 0.449024 -0.893494 0.006727
vn 0.449024 -0.893494 0.006727
vn 0.886629 -0.201198 -0.416423
vn 0.886629 -0.201198 -0.416423
vn 0.886629 -0.201198 -0.416423
vn 0.859909 -0.152134 -0.487249
vn 0.859909 -0.152134 -0.487249
vn 0.859909 -0.152134 -0.487249
vn 0.277690 -0.683460 -0.675107
vn 0.277690 -0.683460 -0.675107
vn 0.277690 -0.683460 -0.675107
vn 0.444128 -0.411073 -0.796096
vn 0.444128 -0.411073 -0.796096
vn 0.444128 -0.411073 -0.796096
vn 0.331333 0.148901 -0.931690
vn 0.331333 0.148901 -0.931690
vn 0.331333 0.148901 -0.931690
vn 0.423535 0.300954 -0.854427
vn 0.423535 0.300954 -0.854427
vn 0.423535 0.300954 -0.854427
vn 0.852383 0.017409 -0.522627
vn 0.852383 0.017409 -0.522627
vn 0.852383 0.017409 -0.522627
vn 0.623185 0.261683 -0.736995
vn 0.623185 0.261683 -0.736995
vn 0.623185 0.261683 -0.736995
vn 0.039722 -0.798317 -0.600926
vn 0.039722 -0.798317 -0.600926
vn 0.039722 -0.798317 -0.600926
vn 0.068473 -0.802813 -0.592286
vn 0.068473 -0.802813 -0.592286
vn 0.068473 -0.802813 -0.592286
vn 0.212661 0.790221 -0.574739
vn 0.212661 0.790221 -0.574739
vn 0.212661 0.790221 -0.574739
vn 0.231565 0.799592 -0.554103
vn 0.231565 0.799592 -0.554103
vn 0.231565 0.799592 -0.554103
vn 0.945247 0.262147 0.194390
vn 0.945247 0.262147 0.194390
vn 0.945247 0.262147 0.194390
vn 0.943291 0.267335 0.196812
vn 0.943291 0.267335 0.196812
vn 0.943291 0.267335 0.196812
vn -0.101602 -0.811263 0.575786
vn -0.101602 -0.811263 0.575786
vn -0.101602 -0.811263 0.575786
vn -0.119015 -0.781287 0.612720
vn -0.119015 -0.781287 0.612720
vn -0.119015 -0.781287 0.612720
vn 0.405241 -0.901965 0.149129
vn 0.405241 -0.901965 0.149129
vn 0.405241 -0.901965 0.149129
vn 0.393963 -0.911248 0.120090
vn 0.393963 -0.911248 0.120090
vn 0.393963 -0.911248 0.120090
vt 0.439449 0.526749
vt 0.439449 0.526749
vt 0.439449 0.526749
vt 0.439449 0.526749
vt 0.439449 0.526749
vt 0.439449 0.526749
vt 0.439449 0.526749
vt 0.439449 0.526749
vt 0.439449 0.526749
vt 0.439449 0.526749
vt 0.439449 0.526749
vt 0.439449 0.526749
vt 0.439449 0.526749
vt 0.439449 0.526749
vt 0.439449 0.526749
vt 0.439449 0.526749
vt 0.439449 0.526749
vt 0.439449 0.526749
vt 0.439449 0.526749
vt 0.439449 0.526749
vt 0.439449 0.526749
vt 0.439449 0.526749
vt 0.439449 0.526749
vt 0.439449 0.526749
vt 0.439449 0.526749
vt 0.439449 0.526749
vt 0.439449 0.526749
vt 0.439449 0.526749
vt 0.439449 0.526749
vt 0.439449 0.526749
vt 0.439449 0.526749
vt 0.439449 0.526749
vt 0.439449 0.526749
vt 0.439449 0.526749
vt 0.439449 0.526749
vt 0.439449 0.526749
vt 0.439449 0.526749
vt 0.439449 0.526749
g cloud04
usemtl Default
f 1/1/1 2/2/2 3/3/3 
f 4/4/4 5/5/5 6/6/6 
f 4/4/7 6/6/8 7/7/9 
f 4/4/10 7/7/11 8/8/12 
f 4/4/13 8/8/14 9/9/15 
f 6/6/16 10/10/17 7/7/18 
f 6/6/19 11/11/20 10/10/21 
f 10/10/22 11/11/23 12/12/24 
f 7/7/25 10/10/26 13/13/27 
f 10/10/28 12/12/29 13/13/30 
f 13/13/31 12/12/32 14/14/33 
f 15/15/34 9/9/35 8/8/36 
f 8/8/37 7/7/38 13/13/39 
f 8/8/40 13/13/41 14/14/42 
f 15/15/43 8/8/44 16/16/45 
f 8/8/46 14/14/47 16/16/48 
f 15/15/49 16/16/50 17/17/51 
f 14/14/52 12/12/53 18/18/54 
f 14/14/55 18/18/56 19/19/57 
f 16/16/58 14/14/59 20/20/60 
f 14/14/61 19/19/62 20/20/63 
f 20/20/64 19/19/65 21/21/66 
f 18/18/67 22/22/68 19/19/69 
f 21/21/70 19/19/71 22/22/72 
f 21/21/73 22/22/74 23/23/75 
f 20/20/76 21/21/77 2/2/78 
f 2/2/79 21/21/80 3/3/81 
f 17/17/82 2/2/83 1/1/84 
f 3/3/85 23/23/86 24/24/87 
f 24/24/88 23/23/89 25/25/90 
f 24/24/91 25/25/92 26/26/93 
f 27/27/94 24/24/95 26/26/96 
f 21/21/97 23/23/98 3/3/99 
f 25/25/100 23/23/101 28/28/102 
f 25/25/103 28/28/104 29/29/105 
f 27/27/106 26/26/107 30/30/108 
f 26/26/109 25/25/110 29/29/111 
f 26/26/112 29/29/113 30/30/114 
f 31/31/115 32/32/116 33/33/117 
f 33/33/118 34/34/119 11/11/120 
f 33/33/121 11/11/122 6/6/123 
f 5/5/124 33/33/125 6/6/126 
f 31/31/127 33/33/128 5/5/129 
f 11/11/130 34/34/131 35/35/132 
f 34/34/133 36/36/134 35/35/135 
f 33/33/136 36/36/137 34/34/138 
f 33/33/139 28/28/140 36/36/141 
f 36/36/142 28/28/143 35/35/144 
f 35/35/145 28/28/146 22/22/147 
f 28/28/148 23/23/149 22/22/150 
f 35/35/151 22/22/152 18/18/153 
f 11/11/154 35/35/155 12/12/156 
f 12/12/157 35/35/158 18/18/159 
f 30/30/160 31/31/161 37/37/162 
f 30/30/163 37/37/164 27/27/165 
f 27/27/166 37/37/167 38/38/168 
f 31/31/169 9/9/170 37/37/171 
f 37/37/172 9/9/173 38/38/174 
f 38/38/175 9/9/176 15/15/177 
f 38/38/178 15/15/179 17/17/180 
f 27/27/181 38/38/182 1/1/183 
f 1/1/184 38/38/185 17/17/186 
f 5/5/187 4/4/188 9/9/189 
f 31/31/190 5/5/191 9/9/192 
f 16/16/193 20/20/194 17/17/195 
f 17/17/196 20/20/197 2/2/198 
f 1/1/199 3/3/200 24/24/201 
f 27/27/202 1/1/203 24/24/204 
f 28/28/205 33/33/206 29/29/207 
f 32/32/208 29/29/209 33/33/210 
f 30/30/211 29/29/212 32/32/213 
f 30/30/214 32/32/215 31/31/216 
