mtllib cloud01.mtl
o cloud01.obj
v 0.379738 1.068378 0.433316
v 0.933200 0.569844 0.301452
v 0.496107 1.068898 -0.021531
v -0.429934 -0.897299 1.098278
v -0.320363 -1.170967 0.591735
v 0.253879 -0.924687 0.972288
v 0.022036 -0.282379 1.245743
v -0.323938 -0.244069 1.250000
v -0.885666 -0.689904 0.858988
v 0.867052 -0.934497 0.615348
v 1.147559 -0.559752 0.556378
v 0.663218 -0.240262 1.037061
v 1.053265 0.093683 0.645331
v 0.389890 0.472086 0.994223
v 0.733987 0.585419 0.730202
v 0.269677 0.819909 0.822998
v -0.800932 0.135107 0.678800
v -0.263415 0.287189 1.092323
v 0.053165 1.047172 0.572876
v -0.457612 1.129950 -0.054087
v 0.015909 1.250000 -0.035344
v -0.889667 0.816559 -0.307042
v 0.006543 1.205506 -0.409187
v 0.904342 0.480539 -0.462327
v 0.010052 1.021287 -0.730341
v 0.786671 0.080394 -0.900170
v -0.588262 1.065956 -0.531474
v -0.331904 0.616380 -1.058790
v -1.053064 0.445564 -0.658172
v 0.147956 0.138133 -1.165005
v -0.481465 0.051589 -1.213954
v 0.037993 -0.412621 -1.250000
v -0.479568 -0.515972 -1.215671
v -1.042997 -0.114810 -0.920881
v 1.031143 -0.546996 -0.860345
v 0.044523 -0.939678 -1.052718
v 0.891368 -1.053145 -0.496693
v -0.972564 -0.739536 -0.858239
v 0.040079 -1.208482 -0.503327
v -0.225609 -1.250000 -0.017999
v -0.798608 -1.116138 -0.149170
v 0.533447 -1.210591 0.066226
v 1.073745 -0.969452 -0.064924
v 1.250000 -0.364885 0.086116
v 1.082047 -0.827871 -0.646235
v 1.200367 -0.127378 -0.304523
v -1.106552 -0.864465 -0.420668
v -1.137835 -0.819948 0.075429
v -1.250000 -0.324542 -0.070228
v -1.209044 0.150865 -0.337600
vn 0.681640 0.710401 0.175205
vn 0.681640 0.710401 0.175205
vn 0.681640 0.710401 0.175205
vn 0.054126 -0.873575 0.483671
vn 0.054126 -0.873575 0.483671
vn 0.054126 -0.873575 0.483671
vn -0.012840 -0.224246 0.974448
vn -0.012840 -0.224246 0.974448
vn -0.012840 -0.224246 0.974448
vn -0.502986 -0.117271 0.856302
vn -0.502986 -0.117271 0.856302
vn -0.502986 -0.117271 0.856302
vn 0.486625 -0.231705 0.842323
vn 0.486625 -0.231705 0.842323
vn 0.486625 -0.231705 0.842323
vn 0.313875 -0.273762 0.909141
vn 0.313875 -0.273762 0.909141
vn 0.313875 -0.273762 0.909141
vn 0.513265 -0.379807 0.769614
vn 0.513265 -0.379807 0.769614
vn 0.513265 -0.379807 0.769614
vn 0.706250 0.005543 0.707941
vn 0.706250 0.005543 0.707941
vn 0.706250 0.005543 0.707941
vn 0.157402 -0.338194 0.927820
vn 0.157402 -0.338194 0.927820
vn 0.157402 -0.338194 0.927820
vn 0.294899 0.169701 0.940338
vn 0.294899 0.169701 0.940338
vn 0.294899 0.169701 0.940338
vn 0.562311 0.262907 0.784020
vn 0.562311 0.262907 0.784020
vn 0.562311 0.262907 0.784020
vn 0.548370 0.216647 0.807685
vn 0.548370 0.216647 0.807685
vn 0.548370 0.216647 0.807685
vn 0.409804 0.512951 0.754283
vn 0.409804 0.512951 0.754283
vn 0.409804 0.512951 0.754283
vn -0.670072 0.223425 0.707874
vn -0.670072 0.223425 0.707874
vn -0.670072 0.223425 0.707874
vn 0.008843 0.444104 0.895932
vn 0.008843 0.444104 0.895932
vn 0.008843 0.444104 0.895932
vn -0.633815 0.285559 0.718843
vn -0.633815 0.285559 0.718843
vn -0.633815 0.285559 0.718843
vn -0.584487 0.609538 0.535573
vn -0.584487 0.609538 0.535573
vn -0.584487 0.609538 0.535573
vn -0.230294 0.612680 0.756035
vn -0.230294 0.612680 0.756035
vn -0.230294 0.612680 0.756035
vn -0.244703 0.915204 0.320190
vn -0.244703 0.915204 0.320190
vn -0.244703 0.915204 0.320190
vn -0.608283 0.626255 0.487644
vn -0.608283 0.626255 0.487644
vn -0.608283 0.626255 0.487644
vn -0.668763 0.435785 0.602368
vn -0.668763 0.435785 0.602368
vn -0.668763 0.435785 0.602368
vn 0.189485 0.802770 0.565381
vn 0.189485 0.802770 0.565381
vn 0.189485 0.802770 0.565381
vn 0.458944 0.684686 0.566193
vn 0.458944 0.684686 0.566193
vn 0.458944 0.684686 0.566193
vn 0.677709 0.675581 0.290348
vn 0.677709 0.675581 0.290348
vn 0.677709 0.675581 0.290348
vn 0.071627 0.947514 0.311588
vn 0.071627 0.947514 0.311588
vn 0.071627 0.947514 0.311588
vn 0.349156 0.932694 0.090395
vn 0.349156 0.932694 0.090395
vn 0.349156 0.932694 0.090395
vn 0.353361 0.927851 -0.119283
vn 0.353361 0.927851 -0.119283
vn 0.353361 0.927851 -0.119283
vn 0.780049 0.617405 -0.101664
vn 0.780049 0.617405 -0.101664
vn 0.780049 0.617405 -0.101664
vn 0.527312 0.551859 -0.646060
vn 0.527312 0.551859 -0.646060
vn 0.527312 0.551859 -0.646060
vn -0.609112 0.790758 0.060700
vn -0.609112 0.790758 0.060700
vn -0.609112 0.790758 0.060700
vn -0.100422 0.862567 -0.495877
vn -0.100422 0.862567 -0.495877
vn -0.100422 0.862567 -0.495877
vn -0.175599 0.705368 -0.686746
vn -0.175599 0.705368 -0.686746
vn -0.175599 0.705368 -0.686746
vn -0.731488 0.610182 -0.304309
vn -0.731488 0.610182 -0.304309
vn -0.731488 0.610182 -0.304309
vn -0.505676 0.519517 -0.688763
vn -0.505676 0.519517 -0.688763
vn -0.505676 0.519517 -0.688763
vn 0.040100 0.254811 -0.966159
vn 0.040100 0.254811 -0.966159
vn 0.040100 0.254811 -0.966159
vn 0.057466 0.141051 -0.988333
vn 0.057466 0.141051 -0.988333
vn 0.057466 0.141051 -0.988333
vn -0.066739 0.002795 -0.997767
vn -0.066739 0.002795 -0.997767
vn -0.066739 0.002795 -0.997767
vn -0.462953 0.001134 -0.886382
vn -0.462953 0.001134 -0.886382
vn -0.462953 0.001134 -0.886382
vn 0.320918 0.418265 -0.849745
vn 0.320918 0.418265 -0.849745
vn 0.320918 0.418265 -0.849745
vn 0.364419 0.534939 -0.762259
vn 0.364419 0.534939 -0.762259
vn 0.364419 0.534939 -0.762259
vn 0.305636 -0.330457 -0.892964
vn 0.305636 -0.330457 -0.892964
vn 0.305636 -0.330457 -0.892964
vn 0.377857 -0.606782 -0.699314
vn 0.377857 -0.606782 -0.699314
vn 0.377857 -0.606782 -0.699314
vn -0.537267 -0.143902 -0.831046
vn -0.537267 -0.143902 -0.831046
vn -0.537267 -0.143902 -0.831046
vn 0.007862 -0.350459 -0.936545
vn 0.007862 -0.350459 -0.936545
vn 0.007862 -0.350459 -0.936545
vn -0.263047 -0.612156 -0.745702
vn -0.263047 -0.612156 -0.745702
vn -0.263047 -0.612156 -0.745702
vn -0.252498 -0.868334 -0.426897
vn -0.252498 -0.868334 -0.426897
vn -0.252498 -0.868334 -0.426897
vn -0.329946 -0.907974 -0.258299
vn -0.329946 -0.907974 -0.258299
vn -0.329946 -0.907974 -0.258299
vn -0.105490 -0.888724 -0.446141
vn -0.105490 -0.888724 -0.446141
vn -0.105490 -0.888724 -0.446141
vn 0.057714 -0.996889 -0.053685
vn 0.057714 -0.996889 -0.053685
vn 0.057714 -0.996889 -0.053685
vn 0.165121 -0.886444 -0.432379
vn 0.165121 -0.886444 -0.432379
vn 0.165121 -0.886444 -0.432379
vn 0.408446 -0.912772 0.004405
vn 0.408446 -0.912772 0.004405
vn 0.408446 -0.912772 0.004405
vn 0.178441 -0.971155 -0.158169
vn 0.178441 -0.971155 -0.158169
vn 0.178441 -0.971155 -0.158169
vn 0.436759 -0.881789 0.178014
vn 0.436759 -0.881789 0.178014
vn 0.436759 -0.881789 0.178014
vn -0.245471 -0.965492 0.087000
vn -0.245471 -0.965492 0.087000
vn -0.245471 -0.965492 0.087000
vn 0.036542 -0.990302 0.134041
vn 0.036542 -0.990302 0.134041
vn 0.036542 -0.990302 0.134041
vn 0.790951 -0.549787 0.268572
vn 0.790951 -0.549787 0.268572
vn 0.790951 -0.549787 0.268572
vn 0.950865 -0.298102 0.083606
vn 0.950865 -0.298102 0.083606
vn 0.950865 -0.298102 0.083606
vn 0.962142 -0.267650 -0.051446
vn 0.962142 -0.267650 -0.051446
vn 0.962142 -0.267650 -0.051446
vn 0.698583 -0.697437 -0.159887
vn 0.698583 -0.697437 -0.159887
vn 0.698583 -0.697437 -0.159887
vn 0.076617 -0.595639 -0.799590
vn 0.076617 -0.595639 -0.799590
vn 0.076617 -0.595639 -0.799590
vn 0.962477 -0.031067 -0.269579
vn 0.962477 -0.031067 -0.269579
vn 0.962477 -0.031067 -0.269579
vn 0.981430 -0.080939 -0.173907
vn 0.981430 -0.080939 -0.173907
vn 0.981430 -0.080939 -0.173907
vn 0.904283 0.418762 -0.083131
vn 0.904283 0.418762 -0.083131
vn 0.904283 0.418762 -0.083131
vn 0.961873 0.104391 0.252790
vn 0.961873 0.104391 0.252790
vn 0.961873 0.104391 0.252790
vn 0.809788 0.463752 0.359412
vn 0.809788 0.463752 0.359412
vn 0.809788 0.463752 0.359412
vn -0.379599 -0.852403 -0.359603
vn -0.379599 -0.852403 -0.359603
vn -0.379599 -0.852403 -0.359603
vn -0.647036 -0.761961 0.027574
vn -0.647036 -0.761961 0.027574
vn -0.647036 -0.761961 0.027574
vn -0.971887 -0.231944 -0.040472
vn -0.971887 -0.231944 -0.040472
vn -0.971887 -0.231944 -0.040472
vn -0.935287 -0.138117 -0.325825
vn -0.935287 -0.138117 -0.325825
vn -0.935287 -0.138117 -0.325825
vn -0.939384 -0.118039 0.321909
vn -0.939384 -0.118039 0.321909
vn -0.939384 -0.118039 0.321909
vn -0.888661 0.183095 0.420425
vn -0.888661 0.183095 0.420425
vn -0.888661 0.183095 0.420425
vn -0.889386 0.279903 0.361452
vn -0.889386 0.279903 0.361452
vn -0.889386 0.279903 0.361452
vn -0.851398 0.392499 0.347945
vn -0.851398 0.392499 0.347945
vn -0.851398 0.392499 0.347945
vn -0.934471 0.137230 -0.328529
vn -0.934471 0.137230 -0.328529
vn -0.934471 0.137230 -0.328529
vn -0.900203 0.433691 -0.039322
vn -0.900203 0.433691 -0.039322
vn -0.900203 0.433691 -0.039322
vn -0.524876 -0.791180 0.313910
vn -0.524876 -0.791180 0.313910
vn -0.524876 -0.791180 0.313910
vn -0.537762 -0.792202 0.288494
vn -0.537762 -0.792202 0.288494
vn -0.537762 -0.792202 0.288494
vn -0.508394 -0.808022 0.297718
vn -0.508394 -0.808022 0.297718
vn -0.508394 -0.808022 0.297718
vn 0.044552 0.296332 0.954045
vn 0.044552 0.296332 0.954045
vn 0.044552 0.296332 0.954045
vn 0.065535 0.277051 0.958618
vn 0.065535 0.277051 0.958618
vn 0.065535 0.277051 0.958618
vn 0.547792 0.710735 -0.441338
vn 0.547792 0.710735 -0.441338
vn 0.547792 0.710735 -0.441338
vn 0.558829 0.721961 -0.408022
vn 0.558829 0.721961 -0.408022
vn 0.558829 0.721961 -0.408022
vn -0.242905 0.967984 -0.063280
vn -0.242905 0.967984 -0.063280
vn -0.242905 0.967984 -0.063280
vn -0.205405 0.972409 -0.110589
vn -0.205405 0.972409 -0.110589
vn -0.205405 0.972409 -0.110589
vn -0.516880 0.351336 -0.780640
vn -0.516880 0.351336 -0.780640
vn -0.516880 0.351336 -0.780640
vn -0.513148 0.356755 -0.780644
vn -0.513148 0.356755 -0.780644
vn -0.513148 0.356755 -0.780644
vn 0.388528 0.093206 -0.916711
vn 0.388528 0.093206 -0.916711
vn 0.388528 0.093206 -0.916711
vn 0.372396 0.068482 -0.925544
vn 0.372396 0.068482 -0.925544
vn 0.372396 0.068482 -0.925544
vn 0.187758 -0.918581 0.347787
vn 0.187758 -0.918581 0.347787
vn 0.187758 -0.918581 0.347787
vn 0.168568 -0.923886 0.343540
vn 0.168568 -0.923886 0.343540
vn 0.168568 -0.923886 0.343540
vn 0.835621 0.285011 -0.469580
vn 0.835621 0.285011 -0.469580
vn 0.835621 0.285011 -0.469580
vn 0.823990 0.290189 -0.486653
vn 0.823990 0.290189 -0.486653
vn 0.823990 0.290189 -0.486653
vn 0.949542 0.306661 0.065804
vn 0.949542 0.306661 0.065804
vn 0.949542 0.306661 0.065804
vn 0.949423 0.301856 0.086485
vn 0.949423 0.301856 0.086485
vn 0.949423 0.301856 0.086485
vn -0.957694 -0.073919 -0.278133
vn -0.957694 -0.073919 -0.278133
vn -0.957694 -0.073919 -0.278133
vn -0.967651 -0.078050 -0.239918
vn -0.967651 -0.078050 -0.239918
vn -0.967651 -0.078050 -0.239918
vt 0.439449 0.526749
vt 0.439449 0.526749
vt 0.439449 0.526749
vt 0.439449 0.526749
vt 0.439449 0.526749
vt 0.439449 0.526749
vt 0.439449 0.526749
vt 0.439449 0.526749
vt 0.439449 0.526749
vt 0.439449 0.526749
vt 0.439449 0.526749
vt 0.439449 0.526749
vt 0.439449 0.526749
vt 0.439449 0.526749
vt 0.439449 0.526749
vt 0.439449 0.526749
vt 0.439449 0.526749
vt 0.439449 0.526749
vt 0.439449 0.526749
vt 0.439449 0.526749
vt 0.439449 0.526749
vt 0.439449 0.526749
vt 0.439449 0.526749
vt 0.439449 0.526749
vt 0.439449 0.526749
vt 0.439449 0.526749
vt 0.439449 0.526749
vt 0.439449 0.526749
vt 0.439449 0.526749
vt 0.439449 0.526749
vt 0.439449 0.526749
vt 0.439449 0.526749
vt 0.439449 0.526749
vt 0.439449 0.526749
vt 0.439449 0.526749
vt 0.439449 0.526749
vt 0.439449 0.526749
vt 0.439449 0.526749
vt 0.439449 0.526749
vt 0.439449 0.526749
vt 0.439449 0.526749
vt 0.439449 0.526749
vt 0.439449 0.526749
vt 0.439449 0.526749
vt 0.439449 0.526749
vt 0.439449 0.526749
vt 0.439449 0.526749
vt 0.439449 0.526749
vt 0.439449 0.526749
vt 0.439449 0.526749
g cloud01
usemtl Default
f 1/1/1 2/2/2 3/3/3 
f 4/4/4 5/5/5 6/6/6 
f 4/4/7 7/7/8 8/8/9 
f 9/9/10 4/4/11 8/8/12 
f 6/6/13 10/10/14 11/11/15 
f 6/6/16 12/12/17 7/7/18 
f 6/6/19 11/11/20 12/12/21 
f 12/12/22 11/11/23 13/13/24 
f 4/4/25 6/6/26 7/7/27 
f 7/7/28 12/12/29 14/14/30 
f 12/12/31 13/13/32 14/14/33 
f 14/14/34 13/13/35 15/15/36 
f 14/14/37 15/15/38 16/16/39 
f 17/17/40 9/9/41 8/8/42 
f 18/18/43 14/14/44 16/16/45 
f 8/8/46 18/18/47 17/17/48 
f 17/17/49 18/18/50 19/19/51 
f 18/18/52 16/16/53 19/19/54 
f 20/20/55 19/19/56 21/21/57 
f 17/17/58 19/19/59 22/22/60 
f 19/19/61 20/20/62 22/22/63 
f 16/16/64 1/1/65 19/19/66 
f 16/16/67 15/15/68 1/1/69 
f 1/1/70 15/15/71 2/2/72 
f 19/19/73 1/1/74 21/21/75 
f 1/1/76 3/3/77 21/21/78 
f 21/21/79 3/3/80 23/23/81 
f 2/2/82 24/24/83 3/3/84 
f 25/25/85 24/24/86 26/26/87 
f 22/22/88 20/20/89 27/27/90 
f 23/23/91 25/25/92 27/27/93 
f 27/27/94 25/25/95 28/28/96 
f 22/22/97 27/27/98 29/29/99 
f 29/29/100 27/27/101 28/28/102 
f 28/28/103 30/30/104 31/31/105 
f 31/31/106 30/30/107 32/32/108 
f 31/31/109 32/32/110 33/33/111 
f 34/34/112 31/31/113 33/33/114 
f 25/25/115 26/26/116 28/28/117 
f 28/28/118 26/26/119 30/30/120 
f 32/32/121 35/35/122 36/36/123 
f 35/35/124 37/37/125 36/36/126 
f 34/34/127 33/33/128 38/38/129 
f 33/33/130 32/32/131 36/36/132 
f 33/33/133 36/36/134 38/38/135 
f 38/38/136 36/36/137 39/39/138 
f 38/38/139 39/39/140 40/40/141 
f 38/38/142 40/40/143 41/41/144 
f 40/40/145 39/39/146 42/42/147 
f 39/39/148 36/36/149 37/37/150 
f 42/42/151 37/37/152 43/43/153 
f 39/39/154 37/37/155 42/42/156 
f 42/42/157 43/43/158 10/10/159 
f 41/41/160 40/40/161 5/5/162 
f 40/40/163 42/42/164 5/5/165 
f 10/10/166 43/43/167 11/11/168 
f 11/11/169 43/43/170 44/44/171 
f 43/43/172 45/45/173 44/44/174 
f 37/37/175 45/45/176 43/43/177 
f 37/37/178 35/35/179 45/45/180 
f 45/45/181 35/35/182 46/46/183 
f 45/45/184 46/46/185 44/44/186 
f 46/46/187 24/24/188 2/2/189 
f 11/11/190 44/44/191 13/13/192 
f 13/13/193 2/2/194 15/15/195 
f 38/38/196 41/41/197 47/47/198 
f 47/47/199 41/41/200 48/48/201 
f 47/47/202 48/48/203 49/49/204 
f 38/38/205 47/47/206 34/34/207 
f 48/48/208 9/9/209 49/49/210 
f 49/49/211 9/9/212 17/17/213 
f 49/49/214 17/17/215 50/50/216 
f 50/50/217 17/17/218 22/22/219 
f 34/34/220 50/50/221 29/29/222 
f 29/29/223 50/50/224 22/22/225 
f 5/5/226 4/4/227 9/9/228 
f 41/41/229 5/5/230 9/9/231 
f 41/41/232 9/9/233 48/48/234 
f 8/8/235 7/7/236 14/14/237 
f 8/8/238 14/14/239 18/18/240 
f 23/23/241 3/3/242 24/24/243 
f 23/23/244 24/24/245 25/25/246 
f 20/20/247 21/21/248 27/27/249 
f 21/21/250 23/23/251 27/27/252 
f 29/29/253 28/28/254 31/31/255 
f 34/34/256 29/29/257 31/31/258 
f 26/26/259 35/35/260 30/30/261 
f 32/32/262 30/30/263 35/35/264 
f 42/42/265 10/10/266 6/6/267 
f 5/5/268 42/42/269 6/6/270 
f 46/46/271 35/35/272 24/24/273 
f 35/35/274 26/26/275 24/24/276 
f 44/44/277 46/46/278 2/2/279 
f 13/13/280 44/44/281 2/2/282 
f 47/47/283 49/49/284 50/50/285 
f 34/34/286 47/47/287 50/50/288 
