mtllib bullet.mtl
o bullet.obj
v 0.000000 0.000000 -0.050644
v 0.000000 -0.000000 0.050644
v 0.000000 -0.050644 0.000000
v 0.050644 0.000000 0.000000
v 0.000000 0.050644 0.000000
v -0.050644 0.000000 0.000000
v 0.037955 -0.000000 -0.037955
v -0.000000 -0.037955 -0.037955
v -0.037955 0.000000 -0.037955
v 0.000000 0.037955 -0.037955
v 0.037955 0.000000 0.037955
v -0.000000 0.037955 0.037955
v -0.037955 -0.000000 0.037955
v 0.000000 -0.037955 0.037955
v -0.037955 -0.037955 0.000000
v 0.037955 -0.037955 0.000000
v 0.037955 0.037955 0.000000
v -0.037955 0.037955 0.000000
v -0.027778 -0.027778 -0.027778
v 0.027778 -0.027778 -0.027778
v -0.027778 0.027778 -0.027778
v 0.027778 0.027778 -0.027778
v -0.027778 -0.027778 0.027778
v 0.027778 -0.027778 0.027778
v -0.027778 0.027778 0.027778
v 0.027778 0.027778 0.027778
vn 0.287642 -0.420633 -0.860424
vn 0.287642 -0.420633 -0.860424
vn 0.287642 -0.420633 -0.860424
vn 0.287642 -0.420633 -0.860424
vn -0.420633 -0.287642 -0.860424
vn -0.420633 -0.287642 -0.860424
vn -0.420633 -0.287642 -0.860424
vn -0.420633 -0.287642 -0.860424
vn -0.287642 0.420633 -0.860424
vn -0.287642 0.420633 -0.860424
vn -0.287642 0.420633 -0.860424
vn -0.287642 0.420633 -0.860424
vn 0.420633 0.287642 -0.860424
vn 0.420633 0.287642 -0.860424
vn 0.420633 0.287642 -0.860424
vn 0.420633 0.287642 -0.860424
vn 0.287642 0.420633 0.860424
vn 0.287642 0.420633 0.860424
vn 0.287642 0.420633 0.860424
vn 0.287642 0.420633 0.860424
vn -0.420633 0.287642 0.860424
vn -0.420633 0.287642 0.860424
vn -0.420633 0.287642 0.860424
vn -0.420633 0.287642 0.860424
vn -0.287642 -0.420633 0.860424
vn -0.287642 -0.420633 0.860424
vn -0.287642 -0.420633 0.860424
vn -0.287642 -0.420633 0.860424
vn 0.420633 -0.287642 0.860424
vn 0.420633 -0.287642 0.860424
vn 0.420633 -0.287642 0.860424
vn 0.420633 -0.287642 0.860424
vn -0.420633 -0.860424 0.287643
vn -0.420633 -0.860424 0.287643
vn -0.420633 -0.860424 0.287643
vn -0.420633 -0.860424 0.287643
vn -0.287643 -0.860424 -0.420633
vn -0.287643 -0.860424 -0.420633
vn -0.287643 -0.860424 -0.420633
vn -0.287643 -0.860424 -0.420633
vn 0.420633 -0.860424 -0.287643
vn 0.420633 -0.860424 -0.287643
vn 0.420633 -0.860424 -0.287643
vn 0.420633 -0.860424 -0.287643
vn 0.287643 -0.860424 0.420633
vn 0.287643 -0.860424 0.420633
vn 0.287643 -0.860424 0.420633
vn 0.287643 -0.860424 0.420633
vn 0.860424 -0.420633 0.287643
vn 0.860424 -0.420633 0.287643
vn 0.860424 -0.420633 0.287643
vn 0.860424 -0.420633 0.287643
vn 0.860424 -0.287643 -0.420633
vn 0.860424 -0.287643 -0.420633
vn 0.860424 -0.287643 -0.420633
vn 0.860424 -0.287643 -0.420633
vn 0.860424 0.420633 -0.287643
vn 0.860424 0.420633 -0.287643
vn 0.860424 0.420633 -0.287643
vn 0.860424 0.420633 -0.287643
vn 0.860424 0.287643 0.420633
vn 0.860424 0.287643 0.420633
vn 0.860424 0.287643 0.420633
vn 0.860424 0.287643 0.420633
vn 0.420633 0.860424 0.287643
vn 0.420633 0.860424 0.287643
vn 0.420633 0.860424 0.287643
vn 0.420633 0.860424 0.287643
vn 0.287643 0.860424 -0.420633
vn 0.287643 0.860424 -0.420633
vn 0.287643 0.860424 -0.420633
vn 0.287643 0.860424 -0.420633
vn -0.420633 0.860424 -0.287643
vn -0.420633 0.860424 -0.287643
vn -0.420633 0.860424 -0.287643
vn -0.420633 0.860424 -0.287643
vn -0.287643 0.860424 0.420633
vn -0.287643 0.860424 0.420633
vn -0.287643 0.860424 0.420633
vn -0.287643 0.860424 0.420633
vn -0.860424 0.420633 0.287643
vn -0.860424 0.420633 0.287643
vn -0.860424 0.420633 0.287643
vn -0.860424 0.420633 0.287643
vn -0.860424 0.287643 -0.420633
vn -0.860424 0.287643 -0.420633
vn -0.860424 0.287643 -0.420633
vn -0.860424 0.287643 -0.420633
vn -0.860424 -0.420633 -0.287643
vn -0.860424 -0.420633 -0.287643
vn -0.860424 -0.420633 -0.287643
vn -0.860424 -0.420633 -0.287643
vn -0.860424 -0.287643 0.420633
vn -0.860424 -0.287643 0.420633
vn -0.860424 -0.287643 0.420633
vn -0.860424 -0.287643 0.420633
vt 0.733313 0.892746
vt 0.735788 0.892746
vt 0.735788 0.892746
vt 0.733313 0.892746
vt 0.730838 0.892746
vt 0.730838 0.892746
vt 0.730838 0.892746
vt 0.733313 0.892746
vt 0.735788 0.892746
vt 0.733313 0.887795
vt 0.735788 0.887795
vt 0.735788 0.887795
vt 0.733313 0.887795
vt 0.730838 0.887795
vt 0.730838 0.887795
vt 0.730838 0.887795
vt 0.733313 0.887795
vt 0.735788 0.887795
vt 0.733313 0.890271
vt 0.730838 0.890270
vt 0.735788 0.890270
vt 0.735788 0.890271
vt 0.735788 0.890270
vt 0.733313 0.890271
vt 0.730838 0.890270
vt 0.730838 0.890271
g Cube
usemtl lowpoly_texture
f 1/1/1 7/2/2 20/3/3 8/4/4 
f 1/1/5 8/4/6 19/5/7 9/6/8 
f 1/1/9 9/6/10 21/7/11 10/8/12 
f 1/1/13 10/8/14 22/9/15 7/2/16 
f 2/10/17 11/11/18 26/12/19 12/13/20 
f 2/10/21 12/13/22 25/14/23 13/15/24 
f 2/10/25 13/15/26 23/16/27 14/17/28 
f 2/10/29 14/17/30 24/18/31 11/11/32 
f 3/19/33 14/17/34 23/16/35 15/20/36 
f 3/19/37 15/20/38 19/5/39 8/4/40 
f 3/19/41 8/4/42 20/3/43 16/21/44 
f 3/19/45 16/21/46 24/18/47 14/17/48 
f 4/22/49 11/11/50 24/18/51 16/21/52 
f 4/22/53 16/21/54 20/3/55 7/2/56 
f 4/22/57 7/2/58 22/9/59 17/23/60 
f 4/22/61 17/23/62 26/12/63 11/11/64 
f 5/24/65 12/13/66 26/12/67 17/23/68 
f 5/24/69 17/23/70 22/9/71 10/8/72 
f 5/24/73 10/8/74 21/7/75 18/25/76 
f 5/24/77 18/25/78 25/14/79 12/13/80 
f 6/26/81 13/15/82 25/14/83 18/25/84 
f 6/26/85 18/25/86 21/7/87 9/6/88 
f 6/26/89 9/6/90 19/5/91 15/20/92 
f 6/26/93 15/20/94 23/16/95 13/15/96 
