mtllib bullet-trail.mtl
o bullet-trail.obj
v 0.000000 -0.044306 -0.000000
v 0.044306 0.000000 0.000000
v 0.000000 0.044306 0.000000
v -0.044306 0.000000 0.000000
v -0.033206 -0.033206 -0.000000
v 0.033206 -0.033206 -0.000000
v 0.033206 0.033206 0.000000
v -0.033206 0.033206 0.000000
v 0.000000 -0.000000 -2.000000
vn 0.000000 -0.000000 1.000000
vn 0.000000 -0.000000 1.000000
vn 0.000000 -0.000000 1.000000
vn 0.000000 -0.000000 1.000000
vn 0.000000 -0.000000 1.000000
vn 0.000000 -0.000000 1.000000
vn 0.000000 -0.000000 1.000000
vn 0.000000 -0.000000 1.000000
vn -0.316985 -0.948198 -0.021006
vn -0.316985 -0.948198 -0.021006
vn -0.316985 -0.948198 -0.021006
vn 0.316985 -0.948198 -0.021006
vn 0.316985 -0.948198 -0.021006
vn 0.316985 -0.948198 -0.021006
vn 0.948198 -0.316985 -0.021006
vn 0.948198 -0.316985 -0.021006
vn 0.948198 -0.316985 -0.021006
vn 0.948198 0.316985 -0.021006
vn 0.948198 0.316985 -0.021006
vn 0.948198 0.316985 -0.021006
vn 0.316985 0.948198 -0.021006
vn 0.316985 0.948198 -0.021006
vn 0.316985 0.948198 -0.021006
vn -0.316985 0.948198 -0.021006
vn -0.316985 0.948198 -0.021006
vn -0.316985 0.948198 -0.021006
vn -0.948198 0.316985 -0.021006
vn -0.948198 0.316985 -0.021006
vn -0.948198 0.316985 -0.021006
vn -0.948198 -0.316985 -0.021006
vn -0.948198 -0.316985 -0.021006
vn -0.948198 -0.316985 -0.021006
vt 0.995050 0.516438
vt 0.995050 0.521934
vt 0.995050 0.516438
vt 0.995050 0.500000
vt 0.995050 0.483562
vt 0.995050 0.478066
vt 0.995050 0.483562
vt 0.995050 0.500000
vt 0.004950 0.500000
g Cube
usemtl lowpoly_texture
f 6/1/1 2/2/2 7/3/3 3/4/4 8/5/5 4/6/6 5/7/7 1/8/8 
f 1/8/9 5/7/10 9/9/11 
f 1/8/12 9/9/13 6/1/14 
f 2/2/15 6/1/16 9/9/17 
f 2/2/18 9/9/19 7/3/20 
f 3/4/21 7/3/22 9/9/23 
f 3/4/24 9/9/25 8/5/26 
f 4/6/27 8/5/28 9/9/29 
f 4/6/30 9/9/31 5/7/32 
