mtllib fist.mtl
o fist.obj
v 0.073829 -0.062661 -0.110744
v 0.081951 -0.069553 0.110744
v 0.073829 0.062661 -0.110744
v 0.081951 0.069553 0.110744
v -0.073829 -0.062661 -0.110744
v -0.081951 -0.069553 0.110744
v -0.073829 0.062661 -0.110744
v -0.081951 0.069553 0.110744
vn 0.999328 0.000000 -0.036644
vn 0.999328 0.000000 -0.036644
vn 0.999328 0.000000 -0.036644
vn 0.999328 0.000000 -0.036644
vn -0.999328 -0.000000 -0.036643
vn -0.999328 -0.000000 -0.036643
vn -0.999328 -0.000000 -0.036643
vn -0.999328 -0.000000 -0.036643
vn 0.000000 -0.999516 -0.031105
vn 0.000000 -0.999516 -0.031105
vn 0.000000 -0.999516 -0.031105
vn 0.000000 -0.999516 -0.031105
vn 0.000000 0.000000 1.000000
vn 0.000000 0.000000 1.000000
vn 0.000000 0.000000 1.000000
vn 0.000000 0.000000 1.000000
vn 0.000000 0.999516 -0.031105
vn 0.000000 0.999516 -0.031105
vn 0.000000 0.999516 -0.031105
vn 0.000000 0.999516 -0.031105
vn 0.000000 0.000000 -1.000000
vn 0.000000 0.000000 -1.000000
vn 0.000000 0.000000 -1.000000
vn 0.000000 0.000000 -1.000000
vt 0.334720 0.739728
vt 0.334720 0.739728
vt 0.330071 0.739557
vt 0.330071 0.739557
vt 0.334720 0.736288
vt 0.334720 0.736288
vt 0.330071 0.736458
vt 0.330071 0.736458
g fist
usemtl lowpoly_texture
f 4/1/1 2/2/2 1/3/3 3/4/4 
f 6/5/5 8/6/6 7/7/7 5/8/8 
f 6/5/9 5/8/10 1/3/11 2/2/12 
f 8/6/13 6/5/14 2/2/15 4/1/16 
f 7/7/17 8/6/18 4/1/19 3/4/20 
f 5/8/21 7/7/22 3/4/23 1/3/24 
